<?xml version="1.0" standalone="no"?>
 <!DOCTYPE svg PUBLIC "-//W3C//DTD SVG 1.1//EN" 
 "http://www.w3.org/Graphics/SVG/1.1/DTD/svg11.dtd"> 
<svg xmlns="http://www.w3.org/2000/svg" version="1.1" 
    width="29.7002cm" height="21.0007cm" viewBox="0 0 116930 82680 ">
<title>SVG Picture created as esquematico_completo-esquematico completo.svg date 2018/11/01 12:21:39 </title>
  <desc>Picture generated by Eeschema-SVG </desc>
<g style="fill:#000000; fill-opacity:1;stroke:#000000; stroke-opacity:1;
stroke-linecap:round; stroke-linejoin:round; "
 transform="translate(0 0) scale(1 1)">
</g>
<g style="fill:#000000; fill-opacity:0.0; 
stroke:#000000; stroke-width:0; stroke-opacity:1; 
stroke-linecap:round; stroke-linejoin:round;">
</g>
<g style="fill:#840000; fill-opacity:0.0; 
stroke:#840000; stroke-width:0; stroke-opacity:1; 
stroke-linecap:round; stroke-linejoin:round;">
</g>
<g style="fill:#FFFFC2; fill-opacity:0.0; 
stroke:#FFFFC2; stroke-width:0; stroke-opacity:1; 
stroke-linecap:round; stroke-linejoin:round;">
</g>
<g style="fill:#FFFFC2; fill-opacity:0.6; 
stroke:#FFFFC2; stroke-width:0; stroke-opacity:1; 
stroke-linecap:round; stroke-linejoin:round;">
<polyline style="fill-rule:evenodd;"
points="35500,21500
39500,23500
35500,25500
35500,21500
" /> 
</g>
<g style="fill:#840000; fill-opacity:0.6; 
stroke:#840000; stroke-width:0; stroke-opacity:1; 
stroke-linecap:round; stroke-linejoin:round;">
</g>
<g style="fill:#840000; fill-opacity:0.0; 
stroke:#840000; stroke-width:100; stroke-opacity:1; 
stroke-linecap:round; stroke-linejoin:round;">
<polyline fill="none;"
points="35500,21500
39500,23500
35500,25500
35500,21500
" /> 
</g>
<g style="fill:#840000; fill-opacity:0.0; 
stroke:#840000; stroke-width:60; stroke-opacity:1; 
stroke-linecap:round; stroke-linejoin:round;">
<path d="M36500 25000
L36500 26500
" />
</g>
<g style="fill:#008484; fill-opacity:0.0; 
stroke:#008484; stroke-width:60; stroke-opacity:1; 
stroke-linecap:round; stroke-linejoin:round;">
<path d="M36220 24720
L36720 24550
L36220 24380
" />
<path d="M36530 24220
L36530 23840
" />
</g>
<g style="fill:#840000; fill-opacity:0.0; 
stroke:#840000; stroke-width:60; stroke-opacity:1; 
stroke-linecap:round; stroke-linejoin:round;">
<path d="M36370 25840
L36370 26130
" />
<path d="M36370 25980
L35870 25980
L35940 26030
L35990 26080
L36010 26130
" />
<path d="M36370 25360
L36370 25650
" />
<path d="M36370 25510
L35870 25510
L35940 25550
L35990 25600
L36010 25650
" />
<path d="M36500 22000
L36500 20500
" />
</g>
<g style="fill:#008484; fill-opacity:0.0; 
stroke:#008484; stroke-width:60; stroke-opacity:1; 
stroke-linecap:round; stroke-linejoin:round;">
<path d="M36220 23230
L36720 23060
L36220 22890
" />
<path d="M36530 22730
L36530 22340
" />
<path d="M36720 22530
L36340 22530
" />
</g>
<g style="fill:#840000; fill-opacity:0.0; 
stroke:#840000; stroke-width:60; stroke-opacity:1; 
stroke-linecap:round; stroke-linejoin:round;">
<path d="M36040 21150
L36370 21150
" />
<path d="M35850 21270
L36200 21390
L36200 21080
" />
<path d="M39500 23500
L40500 23500
" />
<path d="M40140 23370
L39850 23370
" />
<path d="M40000 23370
L40000 22870
L39950 22940
L39900 22990
L39850 23010
" />
<path d="M35500 24500
L34500 24500
" />
</g>
<g style="fill:#008484; fill-opacity:0.0; 
stroke:#008484; stroke-width:60; stroke-opacity:1; 
stroke-linecap:round; stroke-linejoin:round;">
<path d="M35840 24530
L36230 24530
" />
</g>
<g style="fill:#840000; fill-opacity:0.0; 
stroke:#840000; stroke-width:60; stroke-opacity:1; 
stroke-linecap:round; stroke-linejoin:round;">
<path d="M34850 23920
L34880 23900
L34920 23870
L35040 23870
L35090 23900
L35110 23920
L35140 23970
L35140 24010
L35110 24090
L34830 24370
L35140 24370
" />
<path d="M35500 22500
L34500 22500
" />
</g>
<g style="fill:#008484; fill-opacity:0.0; 
stroke:#008484; stroke-width:60; stroke-opacity:1; 
stroke-linecap:round; stroke-linejoin:round;">
<path d="M35840 22530
L36230 22530
" />
<path d="M36030 22720
L36030 22340
" />
</g>
<g style="fill:#840000; fill-opacity:0.0; 
stroke:#840000; stroke-width:60; stroke-opacity:1; 
stroke-linecap:round; stroke-linejoin:round;">
<path d="M34830 21870
L35140 21870
L34970 22060
L35040 22060
L35090 22090
L35110 22110
L35140 22160
L35140 22280
L35110 22320
L35090 22350
L35040 22370
L34900 22370
L34850 22350
L34830 22320
" />
</g>
<g style="fill:#008484; fill-opacity:0.0; 
stroke:#008484; stroke-width:60; stroke-opacity:1; 
stroke-linecap:round; stroke-linejoin:round;">
<path d="M39140 21740
L39140 22150
L39170 22190
L39190 22220
L39240 22240
L39330 22240
L39380 22220
L39410 22190
L39430 22150
L39430 21740
" />
<path d="M39740 22190
L39760 22220
L39740 22240
L39720 22220
L39740 22190
L39740 22240
" />
<path d="M39640 21770
L39690 21740
L39810 21740
L39860 21770
L39880 21810
L39880 21860
L39860 21910
L39830 21930
L39790 21960
L39760 21980
L39740 22030
L39740 22050
" />
<path d="M40070 22100
L40310 22100
" />
<path d="M40020 22240
L40190 21740
L40360 22240
" />
<path d="M38380 25740
L38140 25740
L38140 25240
" />
<path d="M38550 25740
L38550 25240
L38720 25600
L38880 25240
L38880 25740
" />
<path d="M39410 25690
L39380 25720
L39310 25740
L39260 25740
L39190 25720
L39140 25670
L39120 25620
L39100 25530
L39100 25460
L39120 25360
L39140 25310
L39190 25270
L39260 25240
L39310 25240
L39380 25270
L39410 25290
" />
<path d="M39830 25240
L39740 25240
L39690 25270
L39670 25290
L39620 25360
L39600 25460
L39600 25650
L39620 25690
L39640 25720
L39690 25740
L39790 25740
L39830 25720
L39860 25690
L39880 25650
L39880 25530
L39860 25480
L39830 25460
L39790 25430
L39690 25430
L39640 25460
L39620 25480
L39600 25530
" />
<path d="M40310 25410
L40310 25740
" />
<path d="M40190 25220
L40070 25570
L40380 25570
" />
<path d="M40640 25460
L40600 25430
L40570 25410
L40550 25360
L40550 25340
L40570 25290
L40600 25270
L40640 25240
L40740 25240
L40790 25270
L40810 25290
L40830 25340
L40830 25360
L40810 25410
L40790 25430
L40740 25460
L40640 25460
L40600 25480
L40570 25500
L40550 25550
L40550 25650
L40570 25690
L40600 25720
L40640 25740
L40740 25740
L40790 25720
L40810 25690
L40830 25650
L40830 25550
L40810 25500
L40790 25480
L40740 25460
" />
<path d="M41260 25410
L41260 25740
" />
<path d="M41140 25220
L41020 25570
L41330 25570
" />
</g>
<g style="fill:#008484; fill-opacity:0.0; 
stroke:#008484; stroke-width:0; stroke-opacity:1; 
stroke-linecap:round; stroke-linejoin:round;">
</g>
<g style="fill:#840000; fill-opacity:0.0; 
stroke:#840000; stroke-width:0; stroke-opacity:1; 
stroke-linecap:round; stroke-linejoin:round;">
</g>
<g style="fill:#FFFFC2; fill-opacity:0.0; 
stroke:#FFFFC2; stroke-width:0; stroke-opacity:1; 
stroke-linecap:round; stroke-linejoin:round;">
</g>
<g style="fill:#FFFFC2; fill-opacity:0.6; 
stroke:#FFFFC2; stroke-width:0; stroke-opacity:1; 
stroke-linecap:round; stroke-linejoin:round;">
<polyline style="fill-rule:evenodd;"
points="35500,35500
39500,37500
35500,39500
35500,35500
" /> 
</g>
<g style="fill:#840000; fill-opacity:0.6; 
stroke:#840000; stroke-width:0; stroke-opacity:1; 
stroke-linecap:round; stroke-linejoin:round;">
</g>
<g style="fill:#840000; fill-opacity:0.0; 
stroke:#840000; stroke-width:100; stroke-opacity:1; 
stroke-linecap:round; stroke-linejoin:round;">
<polyline fill="none;"
points="35500,35500
39500,37500
35500,39500
35500,35500
" /> 
</g>
<g style="fill:#840000; fill-opacity:0.0; 
stroke:#840000; stroke-width:60; stroke-opacity:1; 
stroke-linecap:round; stroke-linejoin:round;">
<path d="M36500 39000
L36500 40500
" />
</g>
<g style="fill:#008484; fill-opacity:0.0; 
stroke:#008484; stroke-width:60; stroke-opacity:1; 
stroke-linecap:round; stroke-linejoin:round;">
<path d="M36220 38720
L36720 38550
L36220 38380
" />
<path d="M36530 38220
L36530 37840
" />
</g>
<g style="fill:#840000; fill-opacity:0.0; 
stroke:#840000; stroke-width:60; stroke-opacity:1; 
stroke-linecap:round; stroke-linejoin:round;">
<path d="M36370 39840
L36370 40130
" />
<path d="M36370 39980
L35870 39980
L35940 40030
L35990 40080
L36010 40130
" />
<path d="M36370 39360
L36370 39650
" />
<path d="M36370 39510
L35870 39510
L35940 39550
L35990 39600
L36010 39650
" />
<path d="M36500 36000
L36500 34500
" />
</g>
<g style="fill:#008484; fill-opacity:0.0; 
stroke:#008484; stroke-width:60; stroke-opacity:1; 
stroke-linecap:round; stroke-linejoin:round;">
<path d="M36220 37230
L36720 37060
L36220 36890
" />
<path d="M36530 36730
L36530 36340
" />
<path d="M36720 36530
L36340 36530
" />
</g>
<g style="fill:#840000; fill-opacity:0.0; 
stroke:#840000; stroke-width:60; stroke-opacity:1; 
stroke-linecap:round; stroke-linejoin:round;">
<path d="M36040 35150
L36370 35150
" />
<path d="M35850 35270
L36200 35390
L36200 35080
" />
<path d="M35500 36500
L34500 36500
" />
</g>
<g style="fill:#008484; fill-opacity:0.0; 
stroke:#008484; stroke-width:60; stroke-opacity:1; 
stroke-linecap:round; stroke-linejoin:round;">
<path d="M35840 36530
L36230 36530
" />
<path d="M36030 36720
L36030 36340
" />
</g>
<g style="fill:#840000; fill-opacity:0.0; 
stroke:#840000; stroke-width:60; stroke-opacity:1; 
stroke-linecap:round; stroke-linejoin:round;">
<path d="M35110 35870
L34880 35870
L34850 36110
L34880 36090
L34920 36060
L35040 36060
L35090 36090
L35110 36110
L35140 36160
L35140 36280
L35110 36320
L35090 36350
L35040 36370
L34920 36370
L34880 36350
L34850 36320
" />
<path d="M35500 38500
L34500 38500
" />
</g>
<g style="fill:#008484; fill-opacity:0.0; 
stroke:#008484; stroke-width:60; stroke-opacity:1; 
stroke-linecap:round; stroke-linejoin:round;">
<path d="M35840 38530
L36230 38530
" />
</g>
<g style="fill:#840000; fill-opacity:0.0; 
stroke:#840000; stroke-width:60; stroke-opacity:1; 
stroke-linecap:round; stroke-linejoin:round;">
<path d="M35090 37870
L35000 37870
L34950 37900
L34920 37920
L34880 37990
L34850 38090
L34850 38280
L34880 38320
L34900 38350
L34950 38370
L35040 38370
L35090 38350
L35110 38320
L35140 38280
L35140 38160
L35110 38110
L35090 38090
L35040 38060
L34950 38060
L34900 38090
L34880 38110
L34850 38160
" />
<path d="M39500 37500
L40500 37500
" />
<path d="M39830 36870
L40160 36870
L39950 37370
" />
</g>
<g style="fill:#008484; fill-opacity:0.0; 
stroke:#008484; stroke-width:60; stroke-opacity:1; 
stroke-linecap:round; stroke-linejoin:round;">
<path d="M38140 35240
L38140 35650
L38160 35690
L38190 35720
L38230 35740
L38330 35740
L38380 35720
L38400 35690
L38420 35650
L38420 35240
" />
<path d="M38730 35690
L38760 35720
L38730 35740
L38710 35720
L38730 35690
L38730 35740
" />
<path d="M38640 35270
L38690 35240
L38800 35240
L38850 35270
L38880 35310
L38880 35360
L38850 35410
L38830 35430
L38780 35460
L38760 35480
L38730 35530
L38730 35550
" />
<path d="M39260 35480
L39330 35500
L39350 35530
L39380 35570
L39380 35650
L39350 35690
L39330 35720
L39280 35740
L39090 35740
L39090 35240
L39260 35240
L39300 35270
L39330 35290
L39350 35340
L39350 35380
L39330 35430
L39300 35460
L39260 35480
L39090 35480
" />
<path d="M38380 39740
L38140 39740
L38140 39240
" />
<path d="M38550 39740
L38550 39240
L38720 39600
L38880 39240
L38880 39740
" />
<path d="M39410 39690
L39380 39720
L39310 39740
L39260 39740
L39190 39720
L39140 39670
L39120 39620
L39100 39530
L39100 39460
L39120 39360
L39140 39310
L39190 39270
L39260 39240
L39310 39240
L39380 39270
L39410 39290
" />
<path d="M39830 39240
L39740 39240
L39690 39270
L39670 39290
L39620 39360
L39600 39460
L39600 39650
L39620 39690
L39640 39720
L39690 39740
L39790 39740
L39830 39720
L39860 39690
L39880 39650
L39880 39530
L39860 39480
L39830 39460
L39790 39430
L39690 39430
L39640 39460
L39620 39480
L39600 39530
" />
<path d="M40310 39410
L40310 39740
" />
<path d="M40190 39220
L40070 39570
L40380 39570
" />
<path d="M40640 39460
L40600 39430
L40570 39410
L40550 39360
L40550 39340
L40570 39290
L40600 39270
L40640 39240
L40740 39240
L40790 39270
L40810 39290
L40830 39340
L40830 39360
L40810 39410
L40790 39430
L40740 39460
L40640 39460
L40600 39480
L40570 39500
L40550 39550
L40550 39650
L40570 39690
L40600 39720
L40640 39740
L40740 39740
L40790 39720
L40810 39690
L40830 39650
L40830 39550
L40810 39500
L40790 39480
L40740 39460
" />
<path d="M41260 39410
L41260 39740
" />
<path d="M41140 39220
L41020 39570
L41330 39570
" />
</g>
<g style="fill:#008484; fill-opacity:0.0; 
stroke:#008484; stroke-width:0; stroke-opacity:1; 
stroke-linecap:round; stroke-linejoin:round;">
</g>
<g style="fill:#840000; fill-opacity:0.0; 
stroke:#840000; stroke-width:0; stroke-opacity:1; 
stroke-linecap:round; stroke-linejoin:round;">
</g>
<g style="fill:#FFFFC2; fill-opacity:0.0; 
stroke:#FFFFC2; stroke-width:0; stroke-opacity:1; 
stroke-linecap:round; stroke-linejoin:round;">
</g>
<g style="fill:#FFFFC2; fill-opacity:0.6; 
stroke:#FFFFC2; stroke-width:0; stroke-opacity:1; 
stroke-linecap:round; stroke-linejoin:round;">
<polyline style="fill-rule:evenodd;"
points="52500,34000
56500,36000
52500,38000
52500,34000
" /> 
</g>
<g style="fill:#840000; fill-opacity:0.6; 
stroke:#840000; stroke-width:0; stroke-opacity:1; 
stroke-linecap:round; stroke-linejoin:round;">
</g>
<g style="fill:#840000; fill-opacity:0.0; 
stroke:#840000; stroke-width:100; stroke-opacity:1; 
stroke-linecap:round; stroke-linejoin:round;">
<polyline fill="none;"
points="52500,34000
56500,36000
52500,38000
52500,34000
" /> 
</g>
<g style="fill:#840000; fill-opacity:0.0; 
stroke:#840000; stroke-width:60; stroke-opacity:1; 
stroke-linecap:round; stroke-linejoin:round;">
<path d="M53500 37500
L53500 39000
" />
</g>
<g style="fill:#008484; fill-opacity:0.0; 
stroke:#008484; stroke-width:60; stroke-opacity:1; 
stroke-linecap:round; stroke-linejoin:round;">
<path d="M53220 37220
L53720 37050
L53220 36880
" />
<path d="M53530 36720
L53530 36340
" />
</g>
<g style="fill:#840000; fill-opacity:0.0; 
stroke:#840000; stroke-width:60; stroke-opacity:1; 
stroke-linecap:round; stroke-linejoin:round;">
<path d="M53370 38340
L53370 38630
" />
<path d="M53370 38480
L52870 38480
L52940 38530
L52990 38580
L53010 38630
" />
<path d="M53370 37860
L53370 38150
" />
<path d="M53370 38010
L52870 38010
L52940 38050
L52990 38100
L53010 38150
" />
<path d="M53500 34500
L53500 33000
" />
</g>
<g style="fill:#008484; fill-opacity:0.0; 
stroke:#008484; stroke-width:60; stroke-opacity:1; 
stroke-linecap:round; stroke-linejoin:round;">
<path d="M53220 35730
L53720 35560
L53220 35390
" />
<path d="M53530 35230
L53530 34840
" />
<path d="M53720 35030
L53340 35030
" />
</g>
<g style="fill:#840000; fill-opacity:0.0; 
stroke:#840000; stroke-width:60; stroke-opacity:1; 
stroke-linecap:round; stroke-linejoin:round;">
<path d="M53040 33650
L53370 33650
" />
<path d="M52850 33770
L53200 33890
L53200 33580
" />
<path d="M52500 35000
L51500 35000
" />
</g>
<g style="fill:#008484; fill-opacity:0.0; 
stroke:#008484; stroke-width:60; stroke-opacity:1; 
stroke-linecap:round; stroke-linejoin:round;">
<path d="M52840 35030
L53230 35030
" />
<path d="M53030 35220
L53030 34840
" />
</g>
<g style="fill:#840000; fill-opacity:0.0; 
stroke:#840000; stroke-width:60; stroke-opacity:1; 
stroke-linecap:round; stroke-linejoin:round;">
<path d="M51900 34870
L51610 34870
" />
<path d="M51760 34870
L51760 34370
L51710 34440
L51660 34490
L51610 34510
" />
<path d="M52210 34370
L52260 34370
L52300 34400
L52330 34420
L52350 34470
L52380 34560
L52380 34680
L52350 34780
L52330 34820
L52300 34850
L52260 34870
L52210 34870
L52160 34850
L52140 34820
L52110 34780
L52090 34680
L52090 34560
L52110 34470
L52140 34420
L52160 34400
L52210 34370
" />
<path d="M56500 36000
L57500 36000
" />
<path d="M56950 35590
L56900 35560
L56880 35540
L56850 35490
L56850 35470
L56880 35420
L56900 35400
L56950 35370
L57040 35370
L57090 35400
L57110 35420
L57140 35470
L57140 35490
L57110 35540
L57090 35560
L57040 35590
L56950 35590
L56900 35610
L56880 35630
L56850 35680
L56850 35780
L56880 35820
L56900 35850
L56950 35870
L57040 35870
L57090 35850
L57110 35820
L57140 35780
L57140 35680
L57110 35630
L57090 35610
L57040 35590
" />
<path d="M52500 37000
L51500 37000
" />
</g>
<g style="fill:#008484; fill-opacity:0.0; 
stroke:#008484; stroke-width:60; stroke-opacity:1; 
stroke-linecap:round; stroke-linejoin:round;">
<path d="M52840 37030
L53230 37030
" />
</g>
<g style="fill:#840000; fill-opacity:0.0; 
stroke:#840000; stroke-width:60; stroke-opacity:1; 
stroke-linecap:round; stroke-linejoin:round;">
<path d="M51900 36870
L52000 36870
L52040 36850
L52070 36820
L52110 36750
L52140 36660
L52140 36470
L52110 36420
L52090 36400
L52040 36370
L51950 36370
L51900 36400
L51880 36420
L51850 36470
L51850 36590
L51880 36630
L51900 36660
L51950 36680
L52040 36680
L52090 36660
L52110 36630
L52140 36590
" />
</g>
<g style="fill:#008484; fill-opacity:0.0; 
stroke:#008484; stroke-width:60; stroke-opacity:1; 
stroke-linecap:round; stroke-linejoin:round;">
<path d="M55640 34240
L55640 34650
L55660 34690
L55690 34720
L55730 34740
L55830 34740
L55880 34720
L55900 34690
L55920 34650
L55920 34240
" />
<path d="M56230 34690
L56260 34720
L56230 34740
L56210 34720
L56230 34690
L56230 34740
" />
<path d="M56140 34270
L56190 34240
L56300 34240
L56350 34270
L56380 34310
L56380 34360
L56350 34410
L56330 34430
L56280 34460
L56260 34480
L56230 34530
L56230 34550
" />
<path d="M56880 34690
L56850 34720
L56780 34740
L56730 34740
L56660 34720
L56610 34670
L56590 34620
L56570 34530
L56570 34460
L56590 34360
L56610 34310
L56660 34270
L56730 34240
L56780 34240
L56850 34270
L56880 34290
" />
<path d="M55380 38240
L55140 38240
L55140 37740
" />
<path d="M55550 38240
L55550 37740
L55720 38100
L55880 37740
L55880 38240
" />
<path d="M56410 38190
L56380 38220
L56310 38240
L56260 38240
L56190 38220
L56140 38170
L56120 38120
L56100 38030
L56100 37960
L56120 37860
L56140 37810
L56190 37770
L56260 37740
L56310 37740
L56380 37770
L56410 37790
" />
<path d="M56830 37740
L56740 37740
L56690 37770
L56670 37790
L56620 37860
L56600 37960
L56600 38150
L56620 38190
L56640 38220
L56690 38240
L56790 38240
L56830 38220
L56860 38190
L56880 38150
L56880 38030
L56860 37980
L56830 37960
L56790 37930
L56690 37930
L56640 37960
L56620 37980
L56600 38030
" />
<path d="M57310 37910
L57310 38240
" />
<path d="M57190 37720
L57070 38070
L57380 38070
" />
<path d="M57640 37960
L57600 37930
L57570 37910
L57550 37860
L57550 37840
L57570 37790
L57600 37770
L57640 37740
L57740 37740
L57790 37770
L57810 37790
L57830 37840
L57830 37860
L57810 37910
L57790 37930
L57740 37960
L57640 37960
L57600 37980
L57570 38000
L57550 38050
L57550 38150
L57570 38190
L57600 38220
L57640 38240
L57740 38240
L57790 38220
L57810 38190
L57830 38150
L57830 38050
L57810 38000
L57790 37980
L57740 37960
" />
<path d="M58260 37910
L58260 38240
" />
<path d="M58140 37720
L58020 38070
L58330 38070
" />
</g>
<g style="fill:#008484; fill-opacity:0.0; 
stroke:#008484; stroke-width:0; stroke-opacity:1; 
stroke-linecap:round; stroke-linejoin:round;">
</g>
<g style="fill:#840000; fill-opacity:0.0; 
stroke:#840000; stroke-width:0; stroke-opacity:1; 
stroke-linecap:round; stroke-linejoin:round;">
</g>
<g style="fill:#FFFFC2; fill-opacity:0.0; 
stroke:#FFFFC2; stroke-width:0; stroke-opacity:1; 
stroke-linecap:round; stroke-linejoin:round;">
</g>
<g style="fill:#FFFFC2; fill-opacity:0.6; 
stroke:#FFFFC2; stroke-width:0; stroke-opacity:1; 
stroke-linecap:round; stroke-linejoin:round;">
<polyline style="fill-rule:evenodd;"
points="76500,17000
80500,19000
76500,21000
76500,17000
" /> 
</g>
<g style="fill:#840000; fill-opacity:0.6; 
stroke:#840000; stroke-width:0; stroke-opacity:1; 
stroke-linecap:round; stroke-linejoin:round;">
</g>
<g style="fill:#840000; fill-opacity:0.0; 
stroke:#840000; stroke-width:100; stroke-opacity:1; 
stroke-linecap:round; stroke-linejoin:round;">
<polyline fill="none;"
points="76500,17000
80500,19000
76500,21000
76500,17000
" /> 
</g>
<g style="fill:#840000; fill-opacity:0.0; 
stroke:#840000; stroke-width:60; stroke-opacity:1; 
stroke-linecap:round; stroke-linejoin:round;">
<path d="M77500 20500
L77500 22000
" />
</g>
<g style="fill:#008484; fill-opacity:0.0; 
stroke:#008484; stroke-width:60; stroke-opacity:1; 
stroke-linecap:round; stroke-linejoin:round;">
<path d="M77220 20220
L77720 20050
L77220 19880
" />
<path d="M77530 19720
L77530 19340
" />
</g>
<g style="fill:#840000; fill-opacity:0.0; 
stroke:#840000; stroke-width:60; stroke-opacity:1; 
stroke-linecap:round; stroke-linejoin:round;">
<path d="M77370 21340
L77370 21630
" />
<path d="M77370 21480
L76870 21480
L76940 21530
L76990 21580
L77010 21630
" />
<path d="M77370 20860
L77370 21150
" />
<path d="M77370 21010
L76870 21010
L76940 21050
L76990 21100
L77010 21150
" />
<path d="M77500 17500
L77500 16000
" />
</g>
<g style="fill:#008484; fill-opacity:0.0; 
stroke:#008484; stroke-width:60; stroke-opacity:1; 
stroke-linecap:round; stroke-linejoin:round;">
<path d="M77220 18730
L77720 18560
L77220 18390
" />
<path d="M77530 18230
L77530 17840
" />
<path d="M77720 18030
L77340 18030
" />
</g>
<g style="fill:#840000; fill-opacity:0.0; 
stroke:#840000; stroke-width:60; stroke-opacity:1; 
stroke-linecap:round; stroke-linejoin:round;">
<path d="M77040 16650
L77370 16650
" />
<path d="M76850 16770
L77200 16890
L77200 16580
" />
<path d="M76500 18000
L75500 18000
" />
</g>
<g style="fill:#008484; fill-opacity:0.0; 
stroke:#008484; stroke-width:60; stroke-opacity:1; 
stroke-linecap:round; stroke-linejoin:round;">
<path d="M76840 18030
L77230 18030
" />
<path d="M77030 18220
L77030 17840
" />
</g>
<g style="fill:#840000; fill-opacity:0.0; 
stroke:#840000; stroke-width:60; stroke-opacity:1; 
stroke-linecap:round; stroke-linejoin:round;">
<path d="M75900 17870
L75610 17870
" />
<path d="M75760 17870
L75760 17370
L75710 17440
L75660 17490
L75610 17510
" />
<path d="M76090 17420
L76110 17400
L76160 17370
L76280 17370
L76330 17400
L76350 17420
L76380 17470
L76380 17510
L76350 17590
L76070 17870
L76380 17870
" />
<path d="M76500 20000
L75500 20000
" />
</g>
<g style="fill:#008484; fill-opacity:0.0; 
stroke:#008484; stroke-width:60; stroke-opacity:1; 
stroke-linecap:round; stroke-linejoin:round;">
<path d="M76840 20030
L77230 20030
" />
</g>
<g style="fill:#840000; fill-opacity:0.0; 
stroke:#840000; stroke-width:60; stroke-opacity:1; 
stroke-linecap:round; stroke-linejoin:round;">
<path d="M75900 19870
L75610 19870
" />
<path d="M75760 19870
L75760 19370
L75710 19440
L75660 19490
L75610 19510
" />
<path d="M76070 19370
L76380 19370
L76210 19560
L76280 19560
L76330 19590
L76350 19610
L76380 19660
L76380 19780
L76350 19820
L76330 19850
L76280 19870
L76140 19870
L76090 19850
L76070 19820
" />
<path d="M80500 19000
L81500 19000
" />
<path d="M80900 18870
L80610 18870
" />
<path d="M80760 18870
L80760 18370
L80710 18440
L80660 18490
L80610 18510
" />
<path d="M81330 18540
L81330 18870
" />
<path d="M81210 18350
L81090 18700
L81400 18700
" />
</g>
<g style="fill:#008484; fill-opacity:0.0; 
stroke:#008484; stroke-width:60; stroke-opacity:1; 
stroke-linecap:round; stroke-linejoin:round;">
<path d="M79640 17240
L79640 17650
L79660 17690
L79690 17720
L79730 17740
L79830 17740
L79880 17720
L79900 17690
L79920 17650
L79920 17240
" />
<path d="M80230 17690
L80260 17720
L80230 17740
L80210 17720
L80230 17690
L80230 17740
" />
<path d="M80140 17270
L80190 17240
L80300 17240
L80350 17270
L80380 17310
L80380 17360
L80350 17410
L80330 17430
L80280 17460
L80260 17480
L80230 17530
L80230 17550
" />
<path d="M80590 17740
L80590 17240
L80710 17240
L80780 17270
L80830 17310
L80850 17360
L80880 17460
L80880 17530
L80850 17620
L80830 17670
L80780 17720
L80710 17740
L80590 17740
" />
<path d="M80380 21740
L80140 21740
L80140 21240
" />
<path d="M80550 21740
L80550 21240
L80720 21600
L80880 21240
L80880 21740
" />
<path d="M81410 21690
L81380 21720
L81310 21740
L81260 21740
L81190 21720
L81140 21670
L81120 21620
L81100 21530
L81100 21460
L81120 21360
L81140 21310
L81190 21270
L81260 21240
L81310 21240
L81380 21270
L81410 21290
" />
<path d="M81830 21240
L81740 21240
L81690 21270
L81670 21290
L81620 21360
L81600 21460
L81600 21650
L81620 21690
L81640 21720
L81690 21740
L81790 21740
L81830 21720
L81860 21690
L81880 21650
L81880 21530
L81860 21480
L81830 21460
L81790 21430
L81690 21430
L81640 21460
L81620 21480
L81600 21530
" />
<path d="M82310 21410
L82310 21740
" />
<path d="M82190 21220
L82070 21570
L82380 21570
" />
<path d="M82640 21460
L82600 21430
L82570 21410
L82550 21360
L82550 21340
L82570 21290
L82600 21270
L82640 21240
L82740 21240
L82790 21270
L82810 21290
L82830 21340
L82830 21360
L82810 21410
L82790 21430
L82740 21460
L82640 21460
L82600 21480
L82570 21500
L82550 21550
L82550 21650
L82570 21690
L82600 21720
L82640 21740
L82740 21740
L82790 21720
L82810 21690
L82830 21650
L82830 21550
L82810 21500
L82790 21480
L82740 21460
" />
<path d="M83260 21410
L83260 21740
" />
<path d="M83140 21220
L83020 21570
L83330 21570
" />
</g>
<g style="fill:#008484; fill-opacity:0.0; 
stroke:#008484; stroke-width:0; stroke-opacity:1; 
stroke-linecap:round; stroke-linejoin:round;">
</g>
<g style="fill:#840000; fill-opacity:0.0; 
stroke:#840000; stroke-width:0; stroke-opacity:1; 
stroke-linecap:round; stroke-linejoin:round;">
</g>
<g style="fill:#840000; fill-opacity:0.0; 
stroke:#840000; stroke-width:100; stroke-opacity:1; 
stroke-linecap:round; stroke-linejoin:round;">
<rect x="36500" y="29600" width="2000" height="800" rx="0" />
</g>
<g style="fill:#840000; fill-opacity:0.0; 
stroke:#840000; stroke-width:60; stroke-opacity:1; 
stroke-linecap:round; stroke-linejoin:round;">
<path d="M38500 30000
L39000 30000
" />
<path d="M36500 30000
L36000 30000
" />
</g>
<g style="fill:#008484; fill-opacity:0.0; 
stroke:#008484; stroke-width:60; stroke-opacity:1; 
stroke-linecap:round; stroke-linejoin:round;">
<path d="M37440 28170
L37270 27930
" />
<path d="M37150 28170
L37150 27670
L37340 27670
L37390 27700
L37410 27720
L37440 27770
L37440 27840
L37410 27890
L37390 27910
L37340 27930
L37150 27930
" />
<path d="M37720 28120
L37750 28150
L37720 28170
L37700 28150
L37720 28120
L37720 28170
" />
<path d="M37630 27700
L37670 27670
L37790 27670
L37840 27700
L37860 27740
L37860 27790
L37840 27840
L37820 27860
L37770 27890
L37750 27910
L37720 27960
L37720 27980
" />
<path d="M37650 29080
L37480 28840
" />
<path d="M37360 29080
L37360 28580
L37550 28580
L37600 28610
L37630 28630
L37650 28680
L37650 28750
L37630 28800
L37600 28820
L37550 28840
L37360 28840
" />
</g>
<g style="fill:#008484; fill-opacity:0.0; 
stroke:#008484; stroke-width:0; stroke-opacity:1; 
stroke-linecap:round; stroke-linejoin:round;">
</g>
<g style="fill:#840000; fill-opacity:0.0; 
stroke:#840000; stroke-width:0; stroke-opacity:1; 
stroke-linecap:round; stroke-linejoin:round;">
</g>
<g style="fill:#840000; fill-opacity:0.0; 
stroke:#840000; stroke-width:100; stroke-opacity:1; 
stroke-linecap:round; stroke-linejoin:round;">
<rect x="28500" y="29600" width="2000" height="800" rx="0" />
</g>
<g style="fill:#840000; fill-opacity:0.0; 
stroke:#840000; stroke-width:60; stroke-opacity:1; 
stroke-linecap:round; stroke-linejoin:round;">
<path d="M30500 30000
L31000 30000
" />
<path d="M28500 30000
L28000 30000
" />
</g>
<g style="fill:#008484; fill-opacity:0.0; 
stroke:#008484; stroke-width:60; stroke-opacity:1; 
stroke-linecap:round; stroke-linejoin:round;">
<path d="M29440 28170
L29270 27930
" />
<path d="M29150 28170
L29150 27670
L29340 27670
L29390 27700
L29410 27720
L29440 27770
L29440 27840
L29410 27890
L29390 27910
L29340 27930
L29150 27930
" />
<path d="M29720 28120
L29750 28150
L29720 28170
L29700 28150
L29720 28120
L29720 28170
" />
<path d="M29630 27700
L29670 27670
L29790 27670
L29840 27700
L29860 27740
L29860 27790
L29840 27840
L29820 27860
L29770 27890
L29750 27910
L29720 27960
L29720 27980
" />
<path d="M29650 29080
L29480 28840
" />
<path d="M29360 29080
L29360 28580
L29550 28580
L29600 28610
L29630 28630
L29650 28680
L29650 28750
L29630 28800
L29600 28820
L29550 28840
L29360 28840
" />
</g>
<g style="fill:#008400; fill-opacity:0.0; 
stroke:#008400; stroke-width:60; stroke-opacity:1; 
stroke-linecap:round; stroke-linejoin:round;">
<path d="M34500 24500
L33500 24500
" />
<path d="M33500 24500
L33500 30000
" />
<path d="M33500 30000
L36000 30000
" />
<path d="M31000 30000
L33500 30000
" />
</g>
<g style="fill:#008400; fill-opacity:0.0; 
stroke:#008400; stroke-width:0; stroke-opacity:1; 
stroke-linecap:round; stroke-linejoin:round;">
</g>
<g style="fill:#008400; fill-opacity:1.0; 
stroke:#008400; stroke-width:100; stroke-opacity:1; 
stroke-linecap:round; stroke-linejoin:round;">
<circle cx="33500" cy="30000" r="200" /> 
</g>
<g style="fill:#008400; fill-opacity:1.0; 
stroke:#008400; stroke-width:60; stroke-opacity:1; 
stroke-linecap:round; stroke-linejoin:round;">
</g>
<g style="fill:#008400; fill-opacity:0.0; 
stroke:#008400; stroke-width:60; stroke-opacity:1; 
stroke-linecap:round; stroke-linejoin:round;">
<path d="M42000 30000
L42000 23500
" />
<path d="M42000 23500
L40500 23500
" />
</g>
<g style="fill:#008400; fill-opacity:0.0; 
stroke:#008400; stroke-width:0; stroke-opacity:1; 
stroke-linecap:round; stroke-linejoin:round;">
</g>
<g style="fill:#840000; fill-opacity:0.0; 
stroke:#840000; stroke-width:0; stroke-opacity:1; 
stroke-linecap:round; stroke-linejoin:round;">
</g>
<g style="fill:#840000; fill-opacity:0.0; 
stroke:#840000; stroke-width:100; stroke-opacity:1; 
stroke-linecap:round; stroke-linejoin:round;">
<rect x="36500" y="43600" width="2000" height="800" rx="0" />
</g>
<g style="fill:#840000; fill-opacity:0.0; 
stroke:#840000; stroke-width:60; stroke-opacity:1; 
stroke-linecap:round; stroke-linejoin:round;">
<path d="M38500 44000
L39000 44000
" />
<path d="M36500 44000
L36000 44000
" />
</g>
<g style="fill:#008484; fill-opacity:0.0; 
stroke:#008484; stroke-width:60; stroke-opacity:1; 
stroke-linecap:round; stroke-linejoin:round;">
<path d="M37440 42170
L37270 41930
" />
<path d="M37150 42170
L37150 41670
L37340 41670
L37390 41700
L37410 41720
L37440 41770
L37440 41840
L37410 41890
L37390 41910
L37340 41930
L37150 41930
" />
<path d="M37720 42120
L37750 42150
L37720 42170
L37700 42150
L37720 42120
L37720 42170
" />
<path d="M37630 41700
L37670 41670
L37790 41670
L37840 41700
L37860 41740
L37860 41790
L37840 41840
L37820 41860
L37770 41890
L37750 41910
L37720 41960
L37720 41980
" />
<path d="M37650 43080
L37480 42840
" />
<path d="M37360 43080
L37360 42580
L37550 42580
L37600 42610
L37630 42630
L37650 42680
L37650 42750
L37630 42800
L37600 42820
L37550 42840
L37360 42840
" />
</g>
<g style="fill:#008484; fill-opacity:0.0; 
stroke:#008484; stroke-width:0; stroke-opacity:1; 
stroke-linecap:round; stroke-linejoin:round;">
</g>
<g style="fill:#840000; fill-opacity:0.0; 
stroke:#840000; stroke-width:0; stroke-opacity:1; 
stroke-linecap:round; stroke-linejoin:round;">
</g>
<g style="fill:#840000; fill-opacity:0.0; 
stroke:#840000; stroke-width:100; stroke-opacity:1; 
stroke-linecap:round; stroke-linejoin:round;">
<rect x="28500" y="43600" width="2000" height="800" rx="0" />
</g>
<g style="fill:#840000; fill-opacity:0.0; 
stroke:#840000; stroke-width:60; stroke-opacity:1; 
stroke-linecap:round; stroke-linejoin:round;">
<path d="M30500 44000
L31000 44000
" />
<path d="M28500 44000
L28000 44000
" />
</g>
<g style="fill:#008484; fill-opacity:0.0; 
stroke:#008484; stroke-width:60; stroke-opacity:1; 
stroke-linecap:round; stroke-linejoin:round;">
<path d="M29440 42170
L29270 41930
" />
<path d="M29150 42170
L29150 41670
L29340 41670
L29390 41700
L29410 41720
L29440 41770
L29440 41840
L29410 41890
L29390 41910
L29340 41930
L29150 41930
" />
<path d="M29720 42120
L29750 42150
L29720 42170
L29700 42150
L29720 42120
L29720 42170
" />
<path d="M29630 41700
L29670 41670
L29790 41670
L29840 41700
L29860 41740
L29860 41790
L29840 41840
L29820 41860
L29770 41890
L29750 41910
L29720 41960
L29720 41980
" />
<path d="M29650 43080
L29480 42840
" />
<path d="M29360 43080
L29360 42580
L29550 42580
L29600 42610
L29630 42630
L29650 42680
L29650 42750
L29630 42800
L29600 42820
L29550 42840
L29360 42840
" />
</g>
<g style="fill:#008400; fill-opacity:0.0; 
stroke:#008400; stroke-width:60; stroke-opacity:1; 
stroke-linecap:round; stroke-linejoin:round;">
<path d="M33500 38500
L33500 44000
" />
<path d="M33500 44000
L36000 44000
" />
<path d="M31000 44000
L33500 44000
" />
</g>
<g style="fill:#008400; fill-opacity:0.0; 
stroke:#008400; stroke-width:0; stroke-opacity:1; 
stroke-linecap:round; stroke-linejoin:round;">
</g>
<g style="fill:#008400; fill-opacity:1.0; 
stroke:#008400; stroke-width:100; stroke-opacity:1; 
stroke-linecap:round; stroke-linejoin:round;">
<circle cx="33500" cy="44000" r="200" /> 
</g>
<g style="fill:#008400; fill-opacity:1.0; 
stroke:#008400; stroke-width:60; stroke-opacity:1; 
stroke-linecap:round; stroke-linejoin:round;">
</g>
<g style="fill:#008400; fill-opacity:0.0; 
stroke:#008400; stroke-width:60; stroke-opacity:1; 
stroke-linecap:round; stroke-linejoin:round;">
<path d="M39000 44000
L42000 44000
" />
<path d="M42000 44000
L42000 37500
" />
<path d="M33500 38500
L34500 38500
" />
<path d="M40500 37500
L42000 37500
" />
</g>
<g style="fill:#008400; fill-opacity:0.0; 
stroke:#008400; stroke-width:0; stroke-opacity:1; 
stroke-linecap:round; stroke-linejoin:round;">
</g>
<g style="fill:#840000; fill-opacity:0.0; 
stroke:#840000; stroke-width:0; stroke-opacity:1; 
stroke-linecap:round; stroke-linejoin:round;">
</g>
<g style="fill:#840000; fill-opacity:0.0; 
stroke:#840000; stroke-width:100; stroke-opacity:1; 
stroke-linecap:round; stroke-linejoin:round;">
<rect x="45100" y="36500" width="800" height="2000" rx="0" />
</g>
<g style="fill:#840000; fill-opacity:0.0; 
stroke:#840000; stroke-width:60; stroke-opacity:1; 
stroke-linecap:round; stroke-linejoin:round;">
<path d="M45500 38500
L45500 39000
" />
<path d="M45500 36500
L45500 36000
" />
</g>
<g style="fill:#008484; fill-opacity:0.0; 
stroke:#008484; stroke-width:60; stroke-opacity:1; 
stroke-linecap:round; stroke-linejoin:round;">
<path d="M46630 37230
L46460 36990
" />
<path d="M46340 37230
L46340 36730
L46530 36730
L46580 36760
L46600 36780
L46630 36830
L46630 36900
L46600 36950
L46580 36970
L46530 36990
L46340 36990
" />
<path d="M46910 37180
L46940 37210
L46910 37230
L46890 37210
L46910 37180
L46910 37230
" />
<path d="M46820 36760
L46860 36730
L46980 36730
L47030 36760
L47050 36800
L47050 36850
L47030 36900
L47010 36920
L46960 36950
L46940 36970
L46910 37020
L46910 37040
" />
<path d="M46630 38140
L46460 37900
" />
<path d="M46340 38140
L46340 37640
L46530 37640
L46580 37670
L46610 37690
L46630 37740
L46630 37810
L46610 37860
L46580 37880
L46530 37900
L46340 37900
" />
</g>
<g style="fill:#008484; fill-opacity:0.0; 
stroke:#008484; stroke-width:0; stroke-opacity:1; 
stroke-linecap:round; stroke-linejoin:round;">
</g>
<g style="fill:#840000; fill-opacity:0.0; 
stroke:#840000; stroke-width:0; stroke-opacity:1; 
stroke-linecap:round; stroke-linejoin:round;">
</g>
<g style="fill:#840000; fill-opacity:0.0; 
stroke:#840000; stroke-width:100; stroke-opacity:1; 
stroke-linecap:round; stroke-linejoin:round;">
<rect x="45100" y="31500" width="800" height="2000" rx="0" />
</g>
<g style="fill:#840000; fill-opacity:0.0; 
stroke:#840000; stroke-width:60; stroke-opacity:1; 
stroke-linecap:round; stroke-linejoin:round;">
<path d="M45500 33500
L45500 34000
" />
<path d="M45500 31500
L45500 31000
" />
</g>
<g style="fill:#008484; fill-opacity:0.0; 
stroke:#008484; stroke-width:60; stroke-opacity:1; 
stroke-linecap:round; stroke-linejoin:round;">
<path d="M46630 32230
L46460 31990
" />
<path d="M46340 32230
L46340 31730
L46530 31730
L46580 31760
L46600 31780
L46630 31830
L46630 31900
L46600 31950
L46580 31970
L46530 31990
L46340 31990
" />
<path d="M46910 32180
L46940 32210
L46910 32230
L46890 32210
L46910 32180
L46910 32230
" />
<path d="M46820 31760
L46860 31730
L46980 31730
L47030 31760
L47050 31800
L47050 31850
L47030 31900
L47010 31920
L46960 31950
L46940 31970
L46910 32020
L46910 32040
" />
<path d="M46630 33140
L46460 32900
" />
<path d="M46340 33140
L46340 32640
L46530 32640
L46580 32670
L46610 32690
L46630 32740
L46630 32810
L46610 32860
L46580 32880
L46530 32900
L46340 32900
" />
</g>
<g style="fill:#008400; fill-opacity:0.0; 
stroke:#008400; stroke-width:60; stroke-opacity:1; 
stroke-linecap:round; stroke-linejoin:round;">
<path d="M51500 35000
L45500 35000
" />
<path d="M45500 35000
L45500 36000
" />
<path d="M45500 34000
L45500 35000
" />
</g>
<g style="fill:#008400; fill-opacity:0.0; 
stroke:#008400; stroke-width:0; stroke-opacity:1; 
stroke-linecap:round; stroke-linejoin:round;">
</g>
<g style="fill:#008400; fill-opacity:1.0; 
stroke:#008400; stroke-width:100; stroke-opacity:1; 
stroke-linecap:round; stroke-linejoin:round;">
<circle cx="45500" cy="35000" r="200" /> 
</g>
<g style="fill:#008400; fill-opacity:1.0; 
stroke:#008400; stroke-width:60; stroke-opacity:1; 
stroke-linecap:round; stroke-linejoin:round;">
</g>
<g style="fill:#008400; fill-opacity:0.0; 
stroke:#008400; stroke-width:60; stroke-opacity:1; 
stroke-linecap:round; stroke-linejoin:round;">
<path d="M45500 31000
L45500 30000
" />
<path d="M39000 30000
L42000 30000
" />
</g>
<g style="fill:#008400; fill-opacity:0.0; 
stroke:#008400; stroke-width:0; stroke-opacity:1; 
stroke-linecap:round; stroke-linejoin:round;">
</g>
<g style="fill:#008400; fill-opacity:1.0; 
stroke:#008400; stroke-width:100; stroke-opacity:1; 
stroke-linecap:round; stroke-linejoin:round;">
<circle cx="42000" cy="30000" r="200" /> 
</g>
<g style="fill:#008400; fill-opacity:1.0; 
stroke:#008400; stroke-width:60; stroke-opacity:1; 
stroke-linecap:round; stroke-linejoin:round;">
</g>
<g style="fill:#008400; fill-opacity:0.0; 
stroke:#008400; stroke-width:60; stroke-opacity:1; 
stroke-linecap:round; stroke-linejoin:round;">
<path d="M42000 30000
L45500 30000
" />
<path d="M45500 39000
L45500 44000
" />
<path d="M45500 44000
L42000 44000
" />
</g>
<g style="fill:#008400; fill-opacity:0.0; 
stroke:#008400; stroke-width:0; stroke-opacity:1; 
stroke-linecap:round; stroke-linejoin:round;">
</g>
<g style="fill:#008400; fill-opacity:1.0; 
stroke:#008400; stroke-width:100; stroke-opacity:1; 
stroke-linecap:round; stroke-linejoin:round;">
<circle cx="42000" cy="44000" r="200" /> 
</g>
<g style="fill:#008400; fill-opacity:1.0; 
stroke:#008400; stroke-width:60; stroke-opacity:1; 
stroke-linecap:round; stroke-linejoin:round;">
</g>
<g style="fill:#008400; fill-opacity:0.0; 
stroke:#008400; stroke-width:60; stroke-opacity:1; 
stroke-linecap:round; stroke-linejoin:round;">
<path d="M51500 37000
L49000 37000
" />
<path d="M49000 37000
L49000 41000
" />
<path d="M49000 41000
L59500 41000
" />
<path d="M59500 41000
L59500 36000
" />
<path d="M59500 36000
L57500 36000
" />
</g>
<g style="fill:#840000; fill-opacity:0.0; 
stroke:#840000; stroke-width:60; stroke-opacity:1; 
stroke-linecap:round; stroke-linejoin:round;">
<path d="M23870 22720
L23870 22220
L23990 22220
L24060 22250
L24110 22290
L24130 22340
L24160 22440
L24160 22510
L24130 22600
L24110 22650
L24060 22700
L23990 22720
L23870 22720
" />
<path d="M24350 22580
L24580 22580
" />
<path d="M24300 22720
L24460 22220
L24630 22720
" />
<path d="M25080 22670
L25060 22700
L24990 22720
L24940 22720
L24870 22700
L24820 22650
L24800 22600
L24770 22510
L24770 22440
L24800 22340
L24820 22290
L24870 22250
L24940 22220
L24990 22220
L25060 22250
L25080 22270
" />
<path d="M25560 22720
L25270 22720
" />
<path d="M25420 22720
L25420 22220
L25370 22290
L25320 22340
L25270 22360
" />
</g>
<g style="fill:#840000; fill-opacity:0.0; 
stroke:#840000; stroke-width:100; stroke-opacity:1; 
stroke-linecap:round; stroke-linejoin:round;">
<polyline fill="none;"
points="26000,22500
25750,22060
23620,22060
23620,22500
23620,22940
25750,22940
26000,22500
" /> 
</g>
<g style="fill:#840000; fill-opacity:0.0; 
stroke:#840000; stroke-width:60; stroke-opacity:1; 
stroke-linecap:round; stroke-linejoin:round;">
<path d="M23870 36720
L23870 36220
L23990 36220
L24060 36250
L24110 36290
L24130 36340
L24160 36440
L24160 36510
L24130 36600
L24110 36650
L24060 36700
L23990 36720
L23870 36720
" />
<path d="M24350 36580
L24580 36580
" />
<path d="M24300 36720
L24460 36220
L24630 36720
" />
<path d="M25080 36670
L25060 36700
L24990 36720
L24940 36720
L24870 36700
L24820 36650
L24800 36600
L24770 36510
L24770 36440
L24800 36340
L24820 36290
L24870 36250
L24940 36220
L24990 36220
L25060 36250
L25080 36270
" />
<path d="M25270 36270
L25300 36250
L25350 36220
L25460 36220
L25510 36250
L25540 36270
L25560 36320
L25560 36360
L25540 36440
L25250 36720
L25560 36720
" />
</g>
<g style="fill:#840000; fill-opacity:0.0; 
stroke:#840000; stroke-width:100; stroke-opacity:1; 
stroke-linecap:round; stroke-linejoin:round;">
<polyline fill="none;"
points="26000,36500
25750,36060
23620,36060
23620,36500
23620,36940
25750,36940
26000,36500
" /> 
</g>
<g style="fill:#840000; fill-opacity:0.0; 
stroke:#840000; stroke-width:0; stroke-opacity:1; 
stroke-linecap:round; stroke-linejoin:round;">
</g>
<g style="fill:#840000; fill-opacity:0.0; 
stroke:#840000; stroke-width:100; stroke-opacity:1; 
stroke-linecap:round; stroke-linejoin:round;">
<rect x="62000" y="35600" width="2000" height="800" rx="0" />
</g>
<g style="fill:#840000; fill-opacity:0.0; 
stroke:#840000; stroke-width:60; stroke-opacity:1; 
stroke-linecap:round; stroke-linejoin:round;">
<path d="M64000 36000
L64500 36000
" />
<path d="M62000 36000
L61500 36000
" />
</g>
<g style="fill:#008484; fill-opacity:0.0; 
stroke:#008484; stroke-width:60; stroke-opacity:1; 
stroke-linecap:round; stroke-linejoin:round;">
<path d="M62940 34170
L62770 33930
" />
<path d="M62650 34170
L62650 33670
L62840 33670
L62890 33700
L62910 33720
L62940 33770
L62940 33840
L62910 33890
L62890 33910
L62840 33930
L62650 33930
" />
<path d="M63220 34120
L63250 34150
L63220 34170
L63200 34150
L63220 34120
L63220 34170
" />
<path d="M63130 33700
L63170 33670
L63290 33670
L63340 33700
L63360 33740
L63360 33790
L63340 33840
L63320 33860
L63270 33890
L63250 33910
L63220 33960
L63220 33980
" />
<path d="M63150 35080
L62980 34840
" />
<path d="M62860 35080
L62860 34580
L63050 34580
L63100 34610
L63130 34630
L63150 34680
L63150 34750
L63130 34800
L63100 34820
L63050 34840
L62860 34840
" />
</g>
<g style="fill:#008400; fill-opacity:0.0; 
stroke:#008400; stroke-width:60; stroke-opacity:1; 
stroke-linecap:round; stroke-linejoin:round;">
<path d="M61500 36000
L59500 36000
" />
</g>
<g style="fill:#008400; fill-opacity:0.0; 
stroke:#008400; stroke-width:0; stroke-opacity:1; 
stroke-linecap:round; stroke-linejoin:round;">
</g>
<g style="fill:#008400; fill-opacity:1.0; 
stroke:#008400; stroke-width:100; stroke-opacity:1; 
stroke-linecap:round; stroke-linejoin:round;">
<circle cx="59500" cy="36000" r="200" /> 
</g>
<g style="fill:#008400; fill-opacity:1.0; 
stroke:#008400; stroke-width:0; stroke-opacity:1; 
stroke-linecap:round; stroke-linejoin:round;">
</g>
<g style="fill:#840000; fill-opacity:1.0; 
stroke:#840000; stroke-width:0; stroke-opacity:1; 
stroke-linecap:round; stroke-linejoin:round;">
</g>
<g style="fill:#840000; fill-opacity:0.0; 
stroke:#840000; stroke-width:100; stroke-opacity:1; 
stroke-linecap:round; stroke-linejoin:round;">
<circle cx="67650" cy="36000" r="1110" /> 
</g>
<g style="fill:#840000; fill-opacity:1.0; 
stroke:#840000; stroke-width:60; stroke-opacity:1; 
stroke-linecap:round; stroke-linejoin:round;">
<circle cx="68000" cy="36700" r="110" /> 
<circle cx="68000" cy="35300" r="110" /> 
</g>
<g style="fill:#840000; fill-opacity:0.0; 
stroke:#840000; stroke-width:60; stroke-opacity:1; 
stroke-linecap:round; stroke-linejoin:round;">
<polyline fill="none;"
points="67300,36700
68000,36700
" /> 
</g>
<g style="fill:#840000; fill-opacity:0.0; 
stroke:#840000; stroke-width:100; stroke-opacity:1; 
stroke-linecap:round; stroke-linejoin:round;">
<polyline fill="none;"
points="67300,36500
67300,36900
" /> 
</g>
<g style="fill:#840000; fill-opacity:0.0; 
stroke:#840000; stroke-width:60; stroke-opacity:1; 
stroke-linecap:round; stroke-linejoin:round;">
<polyline fill="none;"
points="67300,36000
68000,36000
" /> 
</g>
<g style="fill:#840000; fill-opacity:0.0; 
stroke:#840000; stroke-width:100; stroke-opacity:1; 
stroke-linecap:round; stroke-linejoin:round;">
<polyline fill="none;"
points="67300,35800
67300,36200
" /> 
</g>
<g style="fill:#840000; fill-opacity:0.0; 
stroke:#840000; stroke-width:60; stroke-opacity:1; 
stroke-linecap:round; stroke-linejoin:round;">
<polyline fill="none;"
points="67300,35300
68000,35300
" /> 
</g>
<g style="fill:#840000; fill-opacity:0.0; 
stroke:#840000; stroke-width:100; stroke-opacity:1; 
stroke-linecap:round; stroke-linejoin:round;">
<polyline fill="none;"
points="67300,35100
67300,35500
" /> 
</g>
<g style="fill:#840000; fill-opacity:0.0; 
stroke:#840000; stroke-width:60; stroke-opacity:1; 
stroke-linecap:round; stroke-linejoin:round;">
<polyline fill="none;"
points="68000,36700
68000,37000
" /> 
<polyline fill="none;"
points="68000,36700
68000,36000
" /> 
<polyline fill="none;"
points="68000,35000
68000,35300
" /> 
</g>
<g style="fill:#840000; fill-opacity:0.0; 
stroke:#840000; stroke-width:100; stroke-opacity:1; 
stroke-linecap:round; stroke-linejoin:round;">
<polyline fill="none;"
points="67100,35250
67100,36750
67100,36750
" /> 
</g>
<g style="fill:#840000; fill-opacity:1.0; 
stroke:#840000; stroke-width:60; stroke-opacity:1; 
stroke-linecap:round; stroke-linejoin:round;">
<polyline style="fill-rule:evenodd;"
points="67400,36000
67800,35850
67800,36150
67400,36000
" /> 
</g>
<g style="fill:#840000; fill-opacity:0.0; 
stroke:#840000; stroke-width:60; stroke-opacity:1; 
stroke-linecap:round; stroke-linejoin:round;">
<polyline fill="none;"
points="68000,36700
68300,36700
68300,35300
68000,35300
" /> 
<polyline fill="none;"
points="68100,35800
68150,35850
68450,35850
68500,35900
" /> 
<polyline fill="none;"
points="68300,35850
68150,36100
68450,36100
68300,35850
" /> 
<path d="M67000 36000
L65000 36000
" />
</g>
<g style="fill:#008484; fill-opacity:0.0; 
stroke:#008484; stroke-width:60; stroke-opacity:1; 
stroke-linecap:round; stroke-linejoin:round;">
<path d="M66130 35400
L66080 35370
L66010 35370
L65940 35400
L65890 35440
L65860 35490
L65840 35590
L65840 35660
L65860 35750
L65890 35800
L65940 35850
L66010 35870
L66050 35870
L66130 35850
L66150 35820
L66150 35660
L66050 35660
" />
</g>
<g style="fill:#840000; fill-opacity:0.0; 
stroke:#840000; stroke-width:60; stroke-opacity:1; 
stroke-linecap:round; stroke-linejoin:round;">
<path d="M66140 36570
L65850 36570
" />
<path d="M66000 36570
L66000 36070
L65950 36140
L65900 36190
L65850 36210
" />
<path d="M68000 37000
L68000 38000
" />
</g>
<g style="fill:#008484; fill-opacity:0.0; 
stroke:#008484; stroke-width:60; stroke-opacity:1; 
stroke-linecap:round; stroke-linejoin:round;">
<path d="M67850 37640
L67870 37570
L67870 37450
L67850 37400
L67820 37380
L67780 37350
L67730 37350
L67680 37380
L67660 37400
L67630 37450
L67610 37540
L67590 37590
L67560 37610
L67510 37640
L67470 37640
L67420 37610
L67400 37590
L67370 37540
L67370 37420
L67400 37350
" />
</g>
<g style="fill:#840000; fill-opacity:0.0; 
stroke:#840000; stroke-width:60; stroke-opacity:1; 
stroke-linecap:round; stroke-linejoin:round;">
<path d="M68120 37640
L68100 37610
L68070 37570
L68070 37450
L68100 37400
L68120 37380
L68170 37350
L68210 37350
L68290 37380
L68570 37660
L68570 37350
" />
<path d="M68000 35000
L68000 34000
" />
</g>
<g style="fill:#008484; fill-opacity:0.0; 
stroke:#008484; stroke-width:60; stroke-opacity:1; 
stroke-linecap:round; stroke-linejoin:round;">
<path d="M67870 34630
L67370 34630
L67370 34510
L67400 34440
L67440 34390
L67490 34360
L67590 34340
L67660 34340
L67750 34360
L67800 34390
L67850 34440
L67870 34510
L67870 34630
" />
</g>
<g style="fill:#840000; fill-opacity:0.0; 
stroke:#840000; stroke-width:60; stroke-opacity:1; 
stroke-linecap:round; stroke-linejoin:round;">
<path d="M68070 34660
L68070 34350
L68260 34520
L68260 34450
L68290 34400
L68310 34380
L68360 34350
L68480 34350
L68520 34380
L68550 34400
L68570 34450
L68570 34590
L68550 34640
L68520 34660
" />
</g>
<g style="fill:#008484; fill-opacity:0.0; 
stroke:#008484; stroke-width:60; stroke-opacity:1; 
stroke-linecap:round; stroke-linejoin:round;">
<path d="M69520 35830
L69470 35810
L69430 35760
L69350 35690
L69310 35660
L69260 35660
" />
<path d="M69280 35780
L69240 35760
L69190 35710
L69160 35610
L69160 35450
L69190 35350
L69240 35310
L69280 35280
L69380 35280
L69430 35310
L69470 35350
L69500 35450
L69500 35610
L69470 35710
L69430 35760
L69380 35780
L69280 35780
" />
<path d="M69780 35730
L69810 35760
L69780 35780
L69760 35760
L69780 35730
L69780 35780
" />
<path d="M69690 35310
L69740 35280
L69850 35280
L69900 35310
L69930 35350
L69930 35400
L69900 35450
L69880 35470
L69830 35500
L69810 35520
L69780 35570
L69780 35590
" />
<path d="M69200 36690
L69200 36190
" />
<path d="M69720 36690
L69550 36450
" />
<path d="M69430 36690
L69430 36190
L69630 36190
L69670 36220
L69700 36240
L69720 36290
L69720 36360
L69700 36410
L69670 36430
L69630 36450
L69430 36450
" />
<path d="M70100 36430
L69930 36430
" />
<path d="M69930 36690
L69930 36190
L70170 36190
" />
<path d="M70320 36190
L70650 36190
L70430 36690
" />
<path d="M71050 36360
L71050 36690
" />
<path d="M70930 36170
L70820 36520
L71130 36520
" />
<path d="M71410 36190
L71460 36190
L71510 36220
L71530 36240
L71550 36290
L71580 36380
L71580 36500
L71550 36600
L71530 36640
L71510 36670
L71460 36690
L71410 36690
L71360 36670
L71340 36640
L71320 36600
L71290 36500
L71290 36380
L71320 36290
L71340 36240
L71360 36220
L71410 36190
" />
</g>
<g style="fill:#008400; fill-opacity:0.0; 
stroke:#008400; stroke-width:60; stroke-opacity:1; 
stroke-linecap:round; stroke-linejoin:round;">
<path d="M65000 36000
L64500 36000
" />
</g>
<g style="fill:#008400; fill-opacity:0.0; 
stroke:#008400; stroke-width:0; stroke-opacity:1; 
stroke-linecap:round; stroke-linejoin:round;">
</g>
<g style="fill:#840000; fill-opacity:0.0; 
stroke:#840000; stroke-width:0; stroke-opacity:1; 
stroke-linecap:round; stroke-linejoin:round;">
</g>
<g style="fill:#840000; fill-opacity:0.0; 
stroke:#840000; stroke-width:80; stroke-opacity:1; 
stroke-linecap:round; stroke-linejoin:round;">
<polyline fill="none;"
points="62000,29000
61000,29000
" /> 
</g>
<g style="fill:#840000; fill-opacity:0.0; 
stroke:#840000; stroke-width:60; stroke-opacity:1; 
stroke-linecap:round; stroke-linejoin:round;">
<polyline fill="none;"
points="62200,29200
62200,29400
" /> 
<polyline fill="none;"
points="61500,30000
61500,29000
" /> 
<polyline fill="none;"
points="62800,29800
62200,29200
62400,29200
" /> 
</g>
<g style="fill:#840000; fill-opacity:0.0; 
stroke:#840000; stroke-width:80; stroke-opacity:1; 
stroke-linecap:round; stroke-linejoin:round;">
<polyline fill="none;"
points="61000,30000
62000,30000
61500,29000
61000,30000
" /> 
</g>
<g style="fill:#840000; fill-opacity:0.0; 
stroke:#840000; stroke-width:60; stroke-opacity:1; 
stroke-linecap:round; stroke-linejoin:round;">
<polyline fill="none;"
points="62800,30300
62200,29700
62400,29700
62200,29700
62200,29900
" /> 
<path d="M61500 29000
L61500 28000
" />
<path d="M61500 30000
L61500 31000
" />
</g>
<g style="fill:#008484; fill-opacity:0.0; 
stroke:#008484; stroke-width:60; stroke-opacity:1; 
stroke-linecap:round; stroke-linejoin:round;">
<path d="M59140 29240
L59140 28740
L59260 28740
L59330 28770
L59380 28810
L59400 28860
L59430 28960
L59430 29030
L59400 29120
L59380 29170
L59330 29220
L59260 29240
L59140 29240
" />
<path d="M59710 29190
L59740 29220
L59710 29240
L59690 29220
L59710 29190
L59710 29240
" />
<path d="M59620 28770
L59660 28740
L59780 28740
L59830 28770
L59850 28810
L59850 28860
L59830 28910
L59810 28930
L59760 28960
L59740 28980
L59710 29030
L59710 29050
" />
<path d="M55650 30240
L55650 29740
L55840 29740
L55880 29770
L55910 29790
L55930 29840
L55930 29910
L55910 29960
L55880 29980
L55840 30000
L55650 30000
" />
<path d="M56220 30240
L56170 30220
L56150 30170
L56150 29740
" />
<path d="M56620 30240
L56620 29980
L56600 29930
L56550 29910
L56460 29910
L56410 29930
" />
<path d="M56620 30220
L56570 30240
L56460 30240
L56410 30220
L56380 30170
L56380 30120
L56410 30070
L56460 30050
L56570 30050
L56620 30030
" />
<path d="M57070 30220
L57030 30240
L56930 30240
L56880 30220
L56860 30190
L56840 30150
L56840 30000
L56860 29960
L56880 29930
L56930 29910
L57030 29910
L57070 29930
" />
<path d="M57500 30240
L57500 29980
L57480 29930
L57430 29910
L57340 29910
L57290 29930
" />
<path d="M57500 30220
L57460 30240
L57340 30240
L57290 30220
L57260 30170
L57260 30120
L57290 30070
L57340 30050
L57460 30050
L57500 30030
" />
<path d="M58100 30220
L58150 30240
L58240 30240
L58290 30220
L58310 30170
L58310 30150
L58290 30100
L58240 30070
L58170 30070
L58120 30050
L58100 30000
L58100 29980
L58120 29930
L58170 29910
L58240 29910
L58290 29930
" />
<path d="M58600 30240
L58550 30220
L58530 30190
L58500 30150
L58500 30000
L58530 29960
L58550 29930
L58600 29910
L58670 29910
L58720 29930
L58740 29960
L58760 30000
L58760 30150
L58740 30190
L58720 30220
L58670 30240
L58600 30240
" />
<path d="M59050 30240
L59000 30220
L58980 30170
L58980 29740
" />
<path d="M59460 30240
L59460 29980
L59430 29930
L59380 29910
L59290 29910
L59240 29930
" />
<path d="M59460 30220
L59410 30240
L59290 30240
L59240 30220
L59220 30170
L59220 30120
L59240 30070
L59290 30050
L59410 30050
L59460 30030
" />
<path d="M59690 30240
L59690 29910
" />
<path d="M59690 30000
L59720 29960
L59740 29930
L59790 29910
L59840 29910
" />
</g>
<g style="fill:#008484; fill-opacity:0.0; 
stroke:#008484; stroke-width:0; stroke-opacity:1; 
stroke-linecap:round; stroke-linejoin:round;">
</g>
<g style="fill:#840000; fill-opacity:0.0; 
stroke:#840000; stroke-width:0; stroke-opacity:1; 
stroke-linecap:round; stroke-linejoin:round;">
</g>
<g style="fill:#840000; fill-opacity:0.0; 
stroke:#840000; stroke-width:100; stroke-opacity:1; 
stroke-linecap:round; stroke-linejoin:round;">
<rect x="67600" y="29000" width="800" height="2000" rx="0" />
</g>
<g style="fill:#840000; fill-opacity:0.0; 
stroke:#840000; stroke-width:60; stroke-opacity:1; 
stroke-linecap:round; stroke-linejoin:round;">
<path d="M68000 29000
L68000 28500
" />
<path d="M68000 31000
L68000 31500
" />
</g>
<g style="fill:#008484; fill-opacity:0.0; 
stroke:#008484; stroke-width:60; stroke-opacity:1; 
stroke-linecap:round; stroke-linejoin:round;">
<path d="M69130 29780
L68960 29540
" />
<path d="M68840 29780
L68840 29280
L69030 29280
L69080 29310
L69100 29330
L69130 29380
L69130 29450
L69100 29500
L69080 29520
L69030 29540
L68840 29540
" />
<path d="M69410 29730
L69440 29760
L69410 29780
L69390 29760
L69410 29730
L69410 29780
" />
<path d="M69320 29310
L69360 29280
L69480 29280
L69530 29310
L69550 29350
L69550 29400
L69530 29450
L69510 29470
L69460 29500
L69440 29520
L69410 29570
L69410 29590
" />
<path d="M68820 30670
L68890 30690
L69010 30690
L69060 30670
L69080 30640
L69110 30600
L69110 30550
L69080 30500
L69060 30480
L69010 30450
L68920 30430
L68870 30410
L68840 30380
L68820 30330
L68820 30290
L68840 30240
L68870 30220
L68920 30190
L69040 30190
L69110 30220
" />
<path d="M69320 30690
L69320 30190
" />
<path d="M69540 30690
L69540 30430
L69510 30380
L69460 30360
L69390 30360
L69340 30380
L69320 30410
" />
<path d="M69990 30360
L69990 30690
" />
<path d="M69770 30360
L69770 30620
L69800 30670
L69840 30690
L69920 30690
L69960 30670
L69990 30640
" />
<path d="M70230 30360
L70230 30690
" />
<path d="M70230 30410
L70250 30380
L70300 30360
L70370 30360
L70420 30380
L70440 30430
L70440 30690
" />
<path d="M70610 30360
L70800 30360
" />
<path d="M70680 30190
L70680 30620
L70700 30670
L70750 30690
L70800 30690
" />
</g>
<g style="fill:#008400; fill-opacity:0.0; 
stroke:#008400; stroke-width:60; stroke-opacity:1; 
stroke-linecap:round; stroke-linejoin:round;">
<path d="M68000 28500
L68000 26500
" />
<path d="M61500 26500
L61500 28000
" />
<path d="M61500 31000
L61500 32500
" />
<path d="M68000 31500
L68000 33500
" />
</g>
<g style="fill:#008400; fill-opacity:0.0; 
stroke:#008400; stroke-width:0; stroke-opacity:1; 
stroke-linecap:round; stroke-linejoin:round;">
</g>
<g style="fill:#840000; fill-opacity:0.0; 
stroke:#840000; stroke-width:0; stroke-opacity:1; 
stroke-linecap:round; stroke-linejoin:round;">
</g>
<g style="fill:#FFFFC2; fill-opacity:0.0; 
stroke:#FFFFC2; stroke-width:0; stroke-opacity:1; 
stroke-linecap:round; stroke-linejoin:round;">
</g>
<g style="fill:#FFFFC2; fill-opacity:0.6; 
stroke:#FFFFC2; stroke-width:0; stroke-opacity:1; 
stroke-linecap:round; stroke-linejoin:round;">
<polyline style="fill-rule:evenodd;"
points="84000,29500
79000,27000
79000,32000
84000,29500
" /> 
</g>
<g style="fill:#840000; fill-opacity:0.6; 
stroke:#840000; stroke-width:0; stroke-opacity:1; 
stroke-linecap:round; stroke-linejoin:round;">
</g>
<g style="fill:#840000; fill-opacity:0.0; 
stroke:#840000; stroke-width:100; stroke-opacity:1; 
stroke-linecap:round; stroke-linejoin:round;">
<polyline fill="none;"
points="84000,29500
79000,27000
79000,32000
84000,29500
" /> 
</g>
<g style="fill:#840000; fill-opacity:0.0; 
stroke:#840000; stroke-width:60; stroke-opacity:1; 
stroke-linecap:round; stroke-linejoin:round;">
<path d="M79000 28500
L78000 28500
" />
</g>
<g style="fill:#008484; fill-opacity:0.0; 
stroke:#008484; stroke-width:60; stroke-opacity:1; 
stroke-linecap:round; stroke-linejoin:round;">
<path d="M79530 28720
L79360 28480
" />
<path d="M79240 28720
L79240 28220
L79430 28220
L79480 28250
L79510 28270
L79530 28320
L79530 28390
L79510 28440
L79480 28460
L79430 28480
L79240 28480
" />
<path d="M80010 28720
L79720 28720
" />
<path d="M79860 28720
L79860 28220
L79820 28290
L79770 28340
L79720 28360
" />
</g>
<g style="fill:#840000; fill-opacity:0.0; 
stroke:#840000; stroke-width:60; stroke-opacity:1; 
stroke-linecap:round; stroke-linejoin:round;">
<path d="M78640 28370
L78350 28370
" />
<path d="M78500 28370
L78500 27870
L78450 27940
L78400 27990
L78350 28010
" />
<path d="M79000 31500
L78000 31500
" />
</g>
<g style="fill:#008484; fill-opacity:0.0; 
stroke:#008484; stroke-width:60; stroke-opacity:1; 
stroke-linecap:round; stroke-linejoin:round;">
<path d="M79240 31530
L79630 31530
" />
</g>
<g style="fill:#840000; fill-opacity:0.0; 
stroke:#840000; stroke-width:60; stroke-opacity:1; 
stroke-linecap:round; stroke-linejoin:round;">
<path d="M78350 30920
L78380 30900
L78420 30870
L78540 30870
L78590 30900
L78610 30920
L78640 30970
L78640 31010
L78610 31090
L78330 31370
L78640 31370
" />
<path d="M79000 27500
L78000 27500
" />
</g>
<g style="fill:#008484; fill-opacity:0.0; 
stroke:#008484; stroke-width:60; stroke-opacity:1; 
stroke-linecap:round; stroke-linejoin:round;">
<path d="M79240 27530
L79630 27530
" />
<path d="M79430 27720
L79430 27340
" />
</g>
<g style="fill:#840000; fill-opacity:0.0; 
stroke:#840000; stroke-width:60; stroke-opacity:1; 
stroke-linecap:round; stroke-linejoin:round;">
<path d="M78330 26870
L78640 26870
L78470 27060
L78540 27060
L78590 27090
L78610 27110
L78640 27160
L78640 27280
L78610 27320
L78590 27350
L78540 27370
L78400 27370
L78350 27350
L78330 27320
" />
<path d="M81000 31000
L81000 32500
" />
</g>
<g style="fill:#008484; fill-opacity:0.0; 
stroke:#008484; stroke-width:60; stroke-opacity:1; 
stroke-linecap:round; stroke-linejoin:round;">
<path d="M80720 30820
L81220 30650
L80720 30480
" />
<path d="M81030 30320
L81030 29940
" />
</g>
<g style="fill:#840000; fill-opacity:0.0; 
stroke:#840000; stroke-width:60; stroke-opacity:1; 
stroke-linecap:round; stroke-linejoin:round;">
<path d="M80540 31650
L80870 31650
" />
<path d="M80350 31770
L80700 31890
L80700 31580
" />
<path d="M82000 30500
L82000 32500
" />
</g>
<g style="fill:#008484; fill-opacity:0.0; 
stroke:#008484; stroke-width:60; stroke-opacity:1; 
stroke-linecap:round; stroke-linejoin:round;">
<path d="M82220 29960
L81980 30130
" />
<path d="M82220 30250
L81720 30250
L81720 30060
L81750 30010
L81770 29980
L81820 29960
L81890 29960
L81940 29980
L81960 30010
L81980 30060
L81980 30250
" />
<path d="M81770 29770
L81750 29750
L81720 29700
L81720 29580
L81750 29530
L81770 29510
L81820 29480
L81860 29480
L81940 29510
L82220 29790
L82220 29480
" />
</g>
<g style="fill:#840000; fill-opacity:0.0; 
stroke:#840000; stroke-width:60; stroke-opacity:1; 
stroke-linecap:round; stroke-linejoin:round;">
<path d="M81370 31380
L81370 31610
L81610 31640
L81590 31610
L81560 31570
L81560 31450
L81590 31400
L81610 31380
L81660 31350
L81780 31350
L81820 31380
L81850 31400
L81870 31450
L81870 31570
L81850 31610
L81820 31640
" />
<path d="M84000 29500
L85000 29500
" />
<path d="M84590 28870
L84500 28870
L84450 28900
L84420 28920
L84380 28990
L84350 29090
L84350 29280
L84380 29320
L84400 29350
L84450 29370
L84540 29370
L84590 29350
L84610 29320
L84640 29280
L84640 29160
L84610 29110
L84590 29090
L84540 29060
L84450 29060
L84400 29090
L84380 29110
L84350 29160
" />
<path d="M81000 28000
L81000 26500
" />
</g>
<g style="fill:#008484; fill-opacity:0.0; 
stroke:#008484; stroke-width:60; stroke-opacity:1; 
stroke-linecap:round; stroke-linejoin:round;">
<path d="M80720 29130
L81220 28960
L80720 28790
" />
<path d="M81030 28630
L81030 28240
" />
<path d="M81220 28430
L80840 28430
" />
</g>
<g style="fill:#840000; fill-opacity:0.0; 
stroke:#840000; stroke-width:60; stroke-opacity:1; 
stroke-linecap:round; stroke-linejoin:round;">
<path d="M80370 27410
L80370 27080
L80870 27290
" />
<path d="M79000 30500
L78000 30500
" />
</g>
<g style="fill:#008484; fill-opacity:0.0; 
stroke:#008484; stroke-width:60; stroke-opacity:1; 
stroke-linecap:round; stroke-linejoin:round;">
<path d="M79530 30720
L79360 30480
" />
<path d="M79240 30720
L79240 30220
L79430 30220
L79480 30250
L79510 30270
L79530 30320
L79530 30390
L79510 30440
L79480 30460
L79430 30480
L79240 30480
" />
<path d="M80010 30720
L79720 30720
" />
<path d="M79860 30720
L79860 30220
L79820 30290
L79770 30340
L79720 30360
" />
</g>
<g style="fill:#840000; fill-opacity:0.0; 
stroke:#840000; stroke-width:60; stroke-opacity:1; 
stroke-linecap:round; stroke-linejoin:round;">
<path d="M78450 30090
L78400 30060
L78380 30040
L78350 29990
L78350 29970
L78380 29920
L78400 29900
L78450 29870
L78540 29870
L78590 29900
L78610 29920
L78640 29970
L78640 29990
L78610 30040
L78590 30060
L78540 30090
L78450 30090
L78400 30110
L78380 30130
L78350 30180
L78350 30280
L78380 30320
L78400 30350
L78450 30370
L78540 30370
L78590 30350
L78610 30320
L78640 30280
L78640 30180
L78610 30130
L78590 30110
L78540 30090
" />
</g>
<g style="fill:#008484; fill-opacity:0.0; 
stroke:#008484; stroke-width:60; stroke-opacity:1; 
stroke-linecap:round; stroke-linejoin:round;">
<path d="M82640 27740
L82640 28150
L82660 28190
L82690 28220
L82730 28240
L82830 28240
L82880 28220
L82900 28190
L82920 28150
L82920 27740
" />
<path d="M83230 28190
L83260 28220
L83230 28240
L83210 28220
L83230 28190
L83230 28240
" />
<path d="M83140 27770
L83190 27740
L83300 27740
L83350 27770
L83380 27810
L83380 27860
L83350 27910
L83330 27930
L83280 27960
L83260 27980
L83230 28030
L83230 28050
" />
<path d="M83140 31740
L83140 31240
" />
<path d="M83380 31740
L83380 31240
L83670 31740
L83670 31240
" />
<path d="M83880 31600
L84120 31600
" />
<path d="M83840 31740
L84000 31240
L84170 31740
" />
<path d="M84290 31240
L84600 31240
L84430 31430
L84500 31430
L84550 31460
L84570 31480
L84600 31530
L84600 31650
L84570 31690
L84550 31720
L84500 31740
L84360 31740
L84310 31720
L84290 31690
" />
<path d="M84790 31290
L84810 31270
L84860 31240
L84980 31240
L85030 31270
L85050 31290
L85070 31340
L85070 31380
L85050 31460
L84760 31740
L85070 31740
" />
<path d="M85500 31240
L85410 31240
L85360 31270
L85340 31290
L85290 31360
L85260 31460
L85260 31650
L85290 31690
L85310 31720
L85360 31740
L85450 31740
L85500 31720
L85530 31690
L85550 31650
L85550 31530
L85530 31480
L85500 31460
L85450 31430
L85360 31430
L85310 31460
L85290 31480
L85260 31530
" />
</g>
<g style="fill:#008484; fill-opacity:0.0; 
stroke:#008484; stroke-width:0; stroke-opacity:1; 
stroke-linecap:round; stroke-linejoin:round;">
</g>
<g style="fill:#840000; fill-opacity:0.0; 
stroke:#840000; stroke-width:0; stroke-opacity:1; 
stroke-linecap:round; stroke-linejoin:round;">
</g>
<g style="fill:#840000; fill-opacity:0.0; 
stroke:#840000; stroke-width:100; stroke-opacity:1; 
stroke-linecap:round; stroke-linejoin:round;">
<rect x="72100" y="29000" width="800" height="2000" rx="0" />
</g>
<g style="fill:#840000; fill-opacity:0.0; 
stroke:#840000; stroke-width:60; stroke-opacity:1; 
stroke-linecap:round; stroke-linejoin:round;">
<path d="M72500 29000
L72500 28500
" />
<path d="M72500 31000
L72500 31500
" />
</g>
<g style="fill:#008484; fill-opacity:0.0; 
stroke:#008484; stroke-width:60; stroke-opacity:1; 
stroke-linecap:round; stroke-linejoin:round;">
<path d="M73630 29780
L73460 29540
" />
<path d="M73340 29780
L73340 29280
L73530 29280
L73580 29310
L73600 29330
L73630 29380
L73630 29450
L73600 29500
L73580 29520
L73530 29540
L73340 29540
" />
<path d="M73910 29730
L73940 29760
L73910 29780
L73890 29760
L73910 29730
L73910 29780
" />
<path d="M73820 29310
L73860 29280
L73980 29280
L74030 29310
L74050 29350
L74050 29400
L74030 29450
L74010 29470
L73960 29500
L73940 29520
L73910 29570
L73910 29590
" />
<path d="M73620 30690
L73460 30450
" />
<path d="M73340 30690
L73340 30190
L73530 30190
L73580 30220
L73600 30240
L73620 30290
L73620 30360
L73600 30410
L73580 30430
L73530 30450
L73340 30450
" />
<path d="M74050 30360
L74050 30760
L74030 30810
L74000 30830
L73960 30860
L73890 30860
L73840 30830
" />
<path d="M74050 30670
L74000 30690
L73910 30690
L73860 30670
L73840 30640
L73810 30600
L73810 30450
L73840 30410
L73860 30380
L73910 30360
L74000 30360
L74050 30380
" />
</g>
<g style="fill:#008400; fill-opacity:0.0; 
stroke:#008400; stroke-width:60; stroke-opacity:1; 
stroke-linecap:round; stroke-linejoin:round;">
<path d="M78000 28500
L74500 28500
" />
<path d="M74500 28500
L74500 27500
" />
<path d="M74500 27500
L72500 27500
" />
<path d="M72500 27500
L72500 28500
" />
<path d="M72500 31500
L72500 32500
" />
<path d="M72500 32500
L74500 32500
" />
<path d="M74500 32500
L74500 30500
" />
<path d="M74500 30500
L78000 30500
" />
<path d="M78000 27500
L75000 27500
" />
<path d="M75000 27500
L75000 26500
" />
<path d="M75000 26500
L68000 26500
" />
</g>
<g style="fill:#008400; fill-opacity:0.0; 
stroke:#008400; stroke-width:0; stroke-opacity:1; 
stroke-linecap:round; stroke-linejoin:round;">
</g>
<g style="fill:#008400; fill-opacity:1.0; 
stroke:#008400; stroke-width:100; stroke-opacity:1; 
stroke-linecap:round; stroke-linejoin:round;">
<circle cx="68000" cy="26500" r="200" /> 
</g>
<g style="fill:#008400; fill-opacity:1.0; 
stroke:#008400; stroke-width:60; stroke-opacity:1; 
stroke-linecap:round; stroke-linejoin:round;">
</g>
<g style="fill:#008400; fill-opacity:0.0; 
stroke:#008400; stroke-width:60; stroke-opacity:1; 
stroke-linecap:round; stroke-linejoin:round;">
<path d="M78000 31500
L75000 31500
" />
<path d="M75000 31500
L75000 33500
" />
<path d="M75000 33500
L68000 33500
" />
</g>
<g style="fill:#008400; fill-opacity:0.0; 
stroke:#008400; stroke-width:0; stroke-opacity:1; 
stroke-linecap:round; stroke-linejoin:round;">
</g>
<g style="fill:#008400; fill-opacity:1.0; 
stroke:#008400; stroke-width:100; stroke-opacity:1; 
stroke-linecap:round; stroke-linejoin:round;">
<circle cx="68000" cy="33500" r="200" /> 
</g>
<g style="fill:#008400; fill-opacity:1.0; 
stroke:#008400; stroke-width:60; stroke-opacity:1; 
stroke-linecap:round; stroke-linejoin:round;">
</g>
<g style="fill:#008400; fill-opacity:0.0; 
stroke:#008400; stroke-width:60; stroke-opacity:1; 
stroke-linecap:round; stroke-linejoin:round;">
<path d="M68000 33500
L68000 34000
" />
<path d="M61500 26500
L68000 26500
" />
</g>
<g style="fill:#008400; fill-opacity:0.0; 
stroke:#008400; stroke-width:0; stroke-opacity:1; 
stroke-linecap:round; stroke-linejoin:round;">
</g>
<g style="fill:#840000; fill-opacity:0.0; 
stroke:#840000; stroke-width:0; stroke-opacity:1; 
stroke-linecap:round; stroke-linejoin:round;">
</g>
<g style="fill:#840000; fill-opacity:0.0; 
stroke:#840000; stroke-width:100; stroke-opacity:1; 
stroke-linecap:round; stroke-linejoin:round;">
<rect x="77500" y="24100" width="2000" height="800" rx="0" />
</g>
<g style="fill:#840000; fill-opacity:0.0; 
stroke:#840000; stroke-width:60; stroke-opacity:1; 
stroke-linecap:round; stroke-linejoin:round;">
<path d="M79500 24500
L80000 24500
" />
<path d="M77500 24500
L77000 24500
" />
</g>
<g style="fill:#008484; fill-opacity:0.0; 
stroke:#008484; stroke-width:60; stroke-opacity:1; 
stroke-linecap:round; stroke-linejoin:round;">
<path d="M78440 22670
L78270 22430
" />
<path d="M78150 22670
L78150 22170
L78340 22170
L78390 22200
L78410 22220
L78440 22270
L78440 22340
L78410 22390
L78390 22410
L78340 22430
L78150 22430
" />
<path d="M78720 22620
L78750 22650
L78720 22670
L78700 22650
L78720 22620
L78720 22670
" />
<path d="M78630 22200
L78670 22170
L78790 22170
L78840 22200
L78860 22240
L78860 22290
L78840 22340
L78820 22360
L78770 22390
L78750 22410
L78720 22460
L78720 22480
" />
<path d="M78650 23580
L78480 23340
" />
<path d="M78360 23580
L78360 23080
L78550 23080
L78600 23110
L78630 23130
L78650 23180
L78650 23250
L78630 23300
L78600 23320
L78550 23340
L78360 23340
" />
</g>
<g style="fill:#008484; fill-opacity:0.0; 
stroke:#008484; stroke-width:0; stroke-opacity:1; 
stroke-linecap:round; stroke-linejoin:round;">
</g>
<g style="fill:#840000; fill-opacity:0.0; 
stroke:#840000; stroke-width:0; stroke-opacity:1; 
stroke-linecap:round; stroke-linejoin:round;">
</g>
<g style="fill:#840000; fill-opacity:0.0; 
stroke:#840000; stroke-width:100; stroke-opacity:1; 
stroke-linecap:round; stroke-linejoin:round;">
<rect x="71500" y="24100" width="2000" height="800" rx="0" />
</g>
<g style="fill:#840000; fill-opacity:0.0; 
stroke:#840000; stroke-width:60; stroke-opacity:1; 
stroke-linecap:round; stroke-linejoin:round;">
<path d="M73500 24500
L74000 24500
" />
<path d="M71500 24500
L71000 24500
" />
</g>
<g style="fill:#008484; fill-opacity:0.0; 
stroke:#008484; stroke-width:60; stroke-opacity:1; 
stroke-linecap:round; stroke-linejoin:round;">
<path d="M72440 22670
L72270 22430
" />
<path d="M72150 22670
L72150 22170
L72340 22170
L72390 22200
L72410 22220
L72440 22270
L72440 22340
L72410 22390
L72390 22410
L72340 22430
L72150 22430
" />
<path d="M72720 22620
L72750 22650
L72720 22670
L72700 22650
L72720 22620
L72720 22670
" />
<path d="M72630 22200
L72670 22170
L72790 22170
L72840 22200
L72860 22240
L72860 22290
L72840 22340
L72820 22360
L72770 22390
L72750 22410
L72720 22460
L72720 22480
" />
<path d="M72650 23580
L72480 23340
" />
<path d="M72360 23580
L72360 23080
L72550 23080
L72600 23110
L72630 23130
L72650 23180
L72650 23250
L72630 23300
L72600 23320
L72550 23340
L72360 23340
" />
</g>
<g style="fill:#008400; fill-opacity:0.0; 
stroke:#008400; stroke-width:60; stroke-opacity:1; 
stroke-linecap:round; stroke-linejoin:round;">
<path d="M26000 36500
L34500 36500
" />
<path d="M34500 22500
L26000 22500
" />
<path d="M75500 18000
L68000 18000
" />
<path d="M68000 18000
L68000 26500
" />
<path d="M75500 20000
L74500 20000
" />
<path d="M74500 20000
L74500 24500
" />
<path d="M74500 24500
L74000 24500
" />
<path d="M77000 24500
L74500 24500
" />
</g>
<g style="fill:#008400; fill-opacity:0.0; 
stroke:#008400; stroke-width:0; stroke-opacity:1; 
stroke-linecap:round; stroke-linejoin:round;">
</g>
<g style="fill:#008400; fill-opacity:1.0; 
stroke:#008400; stroke-width:100; stroke-opacity:1; 
stroke-linecap:round; stroke-linejoin:round;">
<circle cx="74500" cy="24500" r="200" /> 
</g>
<g style="fill:#008400; fill-opacity:1.0; 
stroke:#008400; stroke-width:60; stroke-opacity:1; 
stroke-linecap:round; stroke-linejoin:round;">
</g>
<g style="fill:#008400; fill-opacity:0.0; 
stroke:#008400; stroke-width:60; stroke-opacity:1; 
stroke-linecap:round; stroke-linejoin:round;">
<path d="M80000 24500
L83500 24500
" />
<path d="M83500 24500
L83500 19000
" />
<path d="M83500 19000
L81500 19000
" />
</g>
<g style="fill:#008400; fill-opacity:0.0; 
stroke:#008400; stroke-width:0; stroke-opacity:1; 
stroke-linecap:round; stroke-linejoin:round;">
</g>
<g style="fill:#840000; fill-opacity:0.0; 
stroke:#840000; stroke-width:0; stroke-opacity:1; 
stroke-linecap:round; stroke-linejoin:round;">
</g>
<g style="fill:#840000; fill-opacity:0.0; 
stroke:#840000; stroke-width:60; stroke-opacity:1; 
stroke-linecap:round; stroke-linejoin:round;">
<polyline fill="none;"
points="68000,40000
68000,40500
68500,40500
68000,41000
67500,40500
68000,40500
" /> 
</g>
<g style="fill:#008484; fill-opacity:0.0; 
stroke:#008484; stroke-width:60; stroke-opacity:1; 
stroke-linecap:round; stroke-linejoin:round;">
<path d="M67660 41500
L67620 41470
L67550 41470
L67470 41500
L67430 41540
L67400 41590
L67380 41690
L67380 41760
L67400 41850
L67430 41900
L67470 41950
L67550 41970
L67590 41970
L67660 41950
L67690 41920
L67690 41760
L67590 41760
" />
<path d="M67900 41970
L67900 41470
L68190 41970
L68190 41470
" />
<path d="M68430 41970
L68430 41470
L68550 41470
L68620 41500
L68660 41540
L68690 41590
L68710 41690
L68710 41760
L68690 41850
L68660 41900
L68620 41950
L68550 41970
L68430 41970
" />
</g>
<g style="fill:#008400; fill-opacity:0.0; 
stroke:#008400; stroke-width:60; stroke-opacity:1; 
stroke-linecap:round; stroke-linejoin:round;">
<path d="M68000 38000
L68000 40000
" />
</g>
<g style="fill:#008400; fill-opacity:0.0; 
stroke:#008400; stroke-width:0; stroke-opacity:1; 
stroke-linecap:round; stroke-linejoin:round;">
</g>
<g style="fill:#840000; fill-opacity:0.0; 
stroke:#840000; stroke-width:0; stroke-opacity:1; 
stroke-linecap:round; stroke-linejoin:round;">
</g>
<g style="fill:#840000; fill-opacity:0.0; 
stroke:#840000; stroke-width:60; stroke-opacity:1; 
stroke-linecap:round; stroke-linejoin:round;">
<polyline fill="none;"
points="61500,32500
61500,33000
62000,33000
61500,33500
61000,33000
61500,33000
" /> 
</g>
<g style="fill:#008484; fill-opacity:0.0; 
stroke:#008484; stroke-width:60; stroke-opacity:1; 
stroke-linecap:round; stroke-linejoin:round;">
<path d="M61160 34000
L61120 33970
L61050 33970
L60970 34000
L60930 34040
L60900 34090
L60880 34190
L60880 34260
L60900 34350
L60930 34400
L60970 34450
L61050 34470
L61090 34470
L61160 34450
L61190 34420
L61190 34260
L61090 34260
" />
<path d="M61400 34470
L61400 33970
L61690 34470
L61690 33970
" />
<path d="M61930 34470
L61930 33970
L62050 33970
L62120 34000
L62160 34040
L62190 34090
L62210 34190
L62210 34260
L62190 34350
L62160 34400
L62120 34450
L62050 34470
L61930 34470
" />
</g>
<g style="fill:#008484; fill-opacity:0.0; 
stroke:#008484; stroke-width:0; stroke-opacity:1; 
stroke-linecap:round; stroke-linejoin:round;">
</g>
<g style="fill:#840000; fill-opacity:0.0; 
stroke:#840000; stroke-width:0; stroke-opacity:1; 
stroke-linecap:round; stroke-linejoin:round;">
</g>
<g style="fill:#840000; fill-opacity:0.0; 
stroke:#840000; stroke-width:60; stroke-opacity:1; 
stroke-linecap:round; stroke-linejoin:round;">
<polyline fill="none;"
points="70000,24500
70000,25000
70500,25000
70000,25500
69500,25000
70000,25000
" /> 
</g>
<g style="fill:#008484; fill-opacity:0.0; 
stroke:#008484; stroke-width:60; stroke-opacity:1; 
stroke-linecap:round; stroke-linejoin:round;">
<path d="M69660 26000
L69620 25970
L69550 25970
L69470 26000
L69430 26040
L69400 26090
L69380 26190
L69380 26260
L69400 26350
L69430 26400
L69470 26450
L69550 26470
L69590 26470
L69660 26450
L69690 26420
L69690 26260
L69590 26260
" />
<path d="M69900 26470
L69900 25970
L70190 26470
L70190 25970
" />
<path d="M70430 26470
L70430 25970
L70550 25970
L70620 26000
L70660 26040
L70690 26090
L70710 26190
L70710 26260
L70690 26350
L70660 26400
L70620 26450
L70550 26470
L70430 26470
" />
</g>
<g style="fill:#008400; fill-opacity:0.0; 
stroke:#008400; stroke-width:60; stroke-opacity:1; 
stroke-linecap:round; stroke-linejoin:round;">
<path d="M71000 24500
L70000 24500
" />
</g>
<g style="fill:#008400; fill-opacity:0.0; 
stroke:#008400; stroke-width:0; stroke-opacity:1; 
stroke-linecap:round; stroke-linejoin:round;">
</g>
<g style="fill:#840000; fill-opacity:0.0; 
stroke:#840000; stroke-width:0; stroke-opacity:1; 
stroke-linecap:round; stroke-linejoin:round;">
</g>
<g style="fill:#840000; fill-opacity:0.0; 
stroke:#840000; stroke-width:60; stroke-opacity:1; 
stroke-linecap:round; stroke-linejoin:round;">
<polyline fill="none;"
points="26500,44500
26500,45000
27000,45000
26500,45500
26000,45000
26500,45000
" /> 
</g>
<g style="fill:#008484; fill-opacity:0.0; 
stroke:#008484; stroke-width:60; stroke-opacity:1; 
stroke-linecap:round; stroke-linejoin:round;">
<path d="M26160 46000
L26120 45970
L26050 45970
L25970 46000
L25930 46040
L25900 46090
L25880 46190
L25880 46260
L25900 46350
L25930 46400
L25970 46450
L26050 46470
L26090 46470
L26160 46450
L26190 46420
L26190 46260
L26090 46260
" />
<path d="M26400 46470
L26400 45970
L26690 46470
L26690 45970
" />
<path d="M26930 46470
L26930 45970
L27050 45970
L27120 46000
L27160 46040
L27190 46090
L27210 46190
L27210 46260
L27190 46350
L27160 46400
L27120 46450
L27050 46470
L26930 46470
" />
</g>
<g style="fill:#008484; fill-opacity:0.0; 
stroke:#008484; stroke-width:0; stroke-opacity:1; 
stroke-linecap:round; stroke-linejoin:round;">
</g>
<g style="fill:#840000; fill-opacity:0.0; 
stroke:#840000; stroke-width:0; stroke-opacity:1; 
stroke-linecap:round; stroke-linejoin:round;">
</g>
<g style="fill:#840000; fill-opacity:0.0; 
stroke:#840000; stroke-width:60; stroke-opacity:1; 
stroke-linecap:round; stroke-linejoin:round;">
<polyline fill="none;"
points="26000,30000
26000,30500
26500,30500
26000,31000
25500,30500
26000,30500
" /> 
</g>
<g style="fill:#008484; fill-opacity:0.0; 
stroke:#008484; stroke-width:60; stroke-opacity:1; 
stroke-linecap:round; stroke-linejoin:round;">
<path d="M25660 31500
L25620 31470
L25550 31470
L25470 31500
L25430 31540
L25400 31590
L25380 31690
L25380 31760
L25400 31850
L25430 31900
L25470 31950
L25550 31970
L25590 31970
L25660 31950
L25690 31920
L25690 31760
L25590 31760
" />
<path d="M25900 31970
L25900 31470
L26190 31970
L26190 31470
" />
<path d="M26430 31970
L26430 31470
L26550 31470
L26620 31500
L26660 31540
L26690 31590
L26710 31690
L26710 31760
L26690 31850
L26660 31900
L26620 31950
L26550 31970
L26430 31970
" />
</g>
<g style="fill:#008400; fill-opacity:0.0; 
stroke:#008400; stroke-width:60; stroke-opacity:1; 
stroke-linecap:round; stroke-linejoin:round;">
<path d="M26000 30000
L28000 30000
" />
<path d="M28000 44000
L26500 44000
" />
<path d="M26500 44000
L26500 44500
" />
</g>
<g style="fill:#840000; fill-opacity:0.0; 
stroke:#840000; stroke-width:60; stroke-opacity:1; 
stroke-linecap:round; stroke-linejoin:round;">
<path d="M88430 19080
L88670 19080
" />
<path d="M88380 19220
L88550 18720
L88720 19220
" />
<path d="M88880 19220
L88880 18720
L89000 18720
L89070 18750
L89120 18790
L89140 18840
L89170 18940
L89170 19010
L89140 19100
L89120 19150
L89070 19200
L89000 19220
L88880 19220
" />
<path d="M89670 19170
L89640 19200
L89570 19220
L89530 19220
L89450 19200
L89410 19150
L89380 19100
L89360 19010
L89360 18940
L89380 18840
L89410 18790
L89450 18750
L89530 18720
L89570 18720
L89640 18750
L89670 18770
" />
<path d="M90140 19220
L89860 19220
" />
<path d="M90000 19220
L90000 18720
L89950 18790
L89910 18840
L89860 18860
" />
</g>
<g style="fill:#840000; fill-opacity:0.0; 
stroke:#840000; stroke-width:100; stroke-opacity:1; 
stroke-linecap:round; stroke-linejoin:round;">
<polyline fill="none;"
points="88000,19000
88250,19440
90380,19440
90380,19000
90380,18560
88250,18560
88000,19000
" /> 
</g>
<g style="fill:#840000; fill-opacity:0.0; 
stroke:#840000; stroke-width:60; stroke-opacity:1; 
stroke-linecap:round; stroke-linejoin:round;">
</g>
<g style="fill:#008400; fill-opacity:0.0; 
stroke:#008400; stroke-width:60; stroke-opacity:1; 
stroke-linecap:round; stroke-linejoin:round;">
<path d="M88000 19000
L83500 19000
" />
</g>
<g style="fill:#008400; fill-opacity:0.0; 
stroke:#008400; stroke-width:0; stroke-opacity:1; 
stroke-linecap:round; stroke-linejoin:round;">
</g>
<g style="fill:#008400; fill-opacity:1.0; 
stroke:#008400; stroke-width:100; stroke-opacity:1; 
stroke-linecap:round; stroke-linejoin:round;">
<circle cx="83500" cy="19000" r="200" /> 
</g>
<g style="fill:#008400; fill-opacity:1.0; 
stroke:#008400; stroke-width:60; stroke-opacity:1; 
stroke-linecap:round; stroke-linejoin:round;">
</g>
<g style="fill:#840000; fill-opacity:0.0; 
stroke:#840000; stroke-width:60; stroke-opacity:1; 
stroke-linecap:round; stroke-linejoin:round;">
<path d="M88430 29580
L88670 29580
" />
<path d="M88380 29720
L88550 29220
L88720 29720
" />
<path d="M88880 29720
L88880 29220
L89000 29220
L89070 29250
L89120 29290
L89140 29340
L89170 29440
L89170 29510
L89140 29600
L89120 29650
L89070 29700
L89000 29720
L88880 29720
" />
<path d="M89670 29670
L89640 29700
L89570 29720
L89530 29720
L89450 29700
L89410 29650
L89380 29600
L89360 29510
L89360 29440
L89380 29340
L89410 29290
L89450 29250
L89530 29220
L89570 29220
L89640 29250
L89670 29270
" />
<path d="M89860 29270
L89880 29250
L89930 29220
L90050 29220
L90100 29250
L90120 29270
L90140 29320
L90140 29360
L90120 29440
L89840 29720
L90140 29720
" />
</g>
<g style="fill:#840000; fill-opacity:0.0; 
stroke:#840000; stroke-width:100; stroke-opacity:1; 
stroke-linecap:round; stroke-linejoin:round;">
<polyline fill="none;"
points="88000,29500
88250,29940
90380,29940
90380,29500
90380,29060
88250,29060
88000,29500
" /> 
</g>
<g style="fill:#840000; fill-opacity:0.0; 
stroke:#840000; stroke-width:60; stroke-opacity:1; 
stroke-linecap:round; stroke-linejoin:round;">
</g>
<g style="fill:#008400; fill-opacity:0.0; 
stroke:#008400; stroke-width:60; stroke-opacity:1; 
stroke-linecap:round; stroke-linejoin:round;">
<path d="M88000 29500
L85000 29500
" />
</g> 
</svg>
